<?xml version="1.0" encoding="utf-8"?>
<!-- Generator: Adobe Illustrator 18.1.1, SVG Export Plug-In . SVG Version: 6.00 Build 0)  -->
<svg version="1.1" id="Layer_1" xmlns="http://www.w3.org/2000/svg" xmlns:xlink="http://www.w3.org/1999/xlink" x="0px" y="0px"
	 viewBox="0 0 1920 1080" enable-background="new 0 0 1920 1080" xml:space="preserve">
<polygon fill="#92B1D5" points="1922.8,666.8 1922.8,671.8 1832.4,789.2 1831.7,789.4 1830.3,789.2 1823.2,780.9 1784.2,720.9 
	1782,714.5 1782.7,713.2 1914.6,667.6 1922.8,666.8 "/>
<polygon fill="#EB8551" points="2.2,382.8 2.2,315.7 8,311.3 72.8,286.3 80.8,285.7 80.9,293.9 47.1,426.4 45.1,429.8 43.6,430.3 
	41.4,429.6 5,388.5 2.2,382.8 "/>
<polygon fill="#BD968E" points="424.4,1079.9 383.3,1079.9 381.5,1074.9 386,1013.3 388.4,1007.2 402.1,1005 513.6,1002.3 
	512.8,1009.2 431.7,1075.7 424.4,1079.9 "/>
<polygon fill="#D28C84" points="2.2,863.9 2.2,765.9 43.5,729.2 51,726 52.7,733.7 52.1,871 45.9,873 6.5,867 2.2,863.9 "/>
<polygon fill="#B5C6C3" points="978.5,1079.9 934.5,1079.9 932.4,1074.1 932.4,994.3 933,990.4 933.5,988.6 934.7,987.4 
	945.2,990.1 1028.2,1023.4 1032.7,1026.4 1032.5,1029.3 985.8,1075.8 978.5,1079.9 "/>
<polygon fill="#B26B74" points="2.2,1052.9 2.2,1019.9 8.3,1016.6 88.3,994 99.5,992.8 100.1,1000.4 79.1,1074.3 75.3,1079.9 
	42.3,1079.9 5.8,1057 2.2,1052.9 "/>
<polygon fill="#5F91C3" points="1790.7,1079.9 1758.7,1079.9 1672.7,1009.2 1672.5,1006.9 1673.8,1005.8 1800.5,1013.4 
	1806.1,1015.5 1806.7,1022.2 1794.2,1074.6 1790.7,1079.9 "/>
<polygon fill="#AC6474" points="1922.8,2.7 1922.8,41.7 1916.4,47 1840.5,83.4 1831.6,83.8 1836.8,4.7 1839.9,-0.7 1917.9,0.4 
	1922.8,2.7 "/>
<polygon fill="#B06B7A" points="1832.7,84.7 1922.8,41.7 1922.8,86.7 1917.1,96 1870.8,152 1869.3,152.3 1866.7,150.9 1832.9,90.4 
	1831.7,86.6 1832.7,84.7 "/>
<polygon fill="#C27E7C" points="2.2,959.9 2.2,919.9 8,911.9 45.5,875.6 53,872.8 55.5,875.5 96.4,946.4 97.8,953 96.5,954.1 
	11.2,961.8 2.2,959.9 "/>
<polygon fill="#B09C9B" points="1922.8,331.7 1922.8,341.7 1916.8,347 1857.6,384.7 1849.8,386.1 1846.7,379.4 1824.4,290.9 
	1823.9,281.1 1830.7,281.3 1915.4,325.4 1922.8,331.7 "/>
<polygon fill="#BCA49A" points="580.4,1079.9 538.4,1079.9 534.6,1073.7 516.6,1011.4 515.9,1004.5 516.1,1002.9 517.5,1002.2 
	624.1,1040.2 629.2,1044.3 625,1049.6 588,1076.5 580.4,1079.9 "/>
<polygon fill="#E77746" points="80.3,285.7 2.2,315.7 2.2,202.7 8.1,205.5 80.8,283 81,284.5 80.3,285.7 "/>
<polygon fill="#B89590" points="516.4,1003.9 538.4,1079.9 424.4,1079.9 515.4,1003.9 516.4,1003.9 "/>
<polygon fill="#9BB4D5" points="1922.8,666.8 1782.7,713.9 1782.3,713.2 1782.3,711.8 1821.7,643.7 1827.4,638.7 1916.7,660.9 
	1922.8,664.8 1922.8,666.8 "/>
<polygon fill="#B97D81" points="338.3,1079.9 251.3,1079.9 249.9,1074.4 255.3,989.8 257.7,984 260.1,983.6 335.7,1073.9 
	338.3,1079.9 "/>
<polygon fill="#5786BE" points="1922.8,977.9 1922.8,979.9 1894.6,1053.2 1890.2,1060.3 1883,1059.4 1814.7,1022.3 1806.8,1014.5 
	1813.3,1011.1 1914.2,978.5 1922.8,977.9 "/>
<polygon fill="#B19292" points="1922.8,331.7 1827.5,281.7 1824.7,280.7 1824.5,279.3 1829,275.6 1891.4,245.3 1904.3,241.2 
	1907.4,246.2 1922.8,305.7 1922.8,331.7 "/>
<polygon fill="#B7C3BD" points="928.5,1079.9 903.5,1079.9 897.6,1074.6 845.9,1003.1 846,996.4 909.9,993.8 917.2,994.7 
	921.3,1005 930.3,1072.5 928.5,1079.9 "/>
<polygon fill="#E8633C" points="2.2,198.7 2.2,195.7 70.3,114.1 74.6,114.7 76.3,123.5 81.1,207 79.9,213.8 73.8,215 7.3,201.7 
	2.2,198.7 "/>
<polygon fill="#D93B2A" points="2.2,31.7 0,0 67.9,-0.8 71.3,82.6 2.2,31.7 "/>
<polygon fill="#6CA1CB" points="1672.7,1006.9 1672.7,1007.9 1670.1,1012.6 1611.6,1074.1 1603.7,1079.9 1568.7,1079.9 1565,1074.7 
	1556.1,1048.8 1555.5,1042.9 1556.3,1041.5 1662.5,1007.7 1672.1,1006.4 1672.7,1006.9 "/>
<polygon fill="#9FB0CA" points="1922.8,664.8 1826.7,639.8 1826.7,638.4 1834.4,633 1912.6,592.3 1920.8,591.4 1922.8,664.8 "/>
<polygon fill="#B5737B" points="231.3,1079.9 150.3,1079.9 153.2,1072 207.7,996.5 213.4,993.6 217,1003.3 232,1071 231.3,1079.9 
	"/>
<polygon fill="#7EACD1" points="1491.6,1079.9 1397.6,1079.9 1397.7,1074.9 1477.6,1007.9 1483.2,1007.6 1492.3,1070.4 
	1491.6,1079.9 "/>
<polygon fill="#5F92C3" points="1922.8,977.9 1806.7,1015 1806,1014.4 1805.9,1002.7 1811.7,957.6 1813.9,952.8 1821.7,952.6 
	1921.5,974.9 1922.8,975.9 1922.8,977.9 "/>
<polygon fill="#5384BD" points="1806.7,1015 1889.7,1059.9 1889.8,1061.4 1888.6,1062.3 1841.7,1079.9 1790.7,1079.9 1805.4,1019.4 
	1805.7,1015.9 1806.7,1014.9 1806.7,1015 "/>
<polygon fill="#8EA8D1" points="1831.7,788.9 1922.8,671.8 1922.8,747.8 1916.1,752.8 1839.1,787.8 1831.7,788.9 "/>
<polygon fill="#ABABB1" points="1922.8,443.8 1922.8,527.8 1916.6,528.4 1880.3,519.8 1873.3,516.3 1874.5,506.7 1907.4,408.9 
	1909.8,404 1911.2,403.4 1912.6,404.2 1922.8,443.8 "/>
<polygon fill="#B9777B" points="212.3,993.9 150.3,1079.9 139.3,1079.9 135.5,1074.3 121,1029.2 119.9,1021.8 120.8,1019.6 
	203.8,993.1 212.1,992.5 212.3,993.9 "/>
<polygon fill="#82A6CF" points="1831.7,788.9 1922.8,747.8 1922.8,766.9 1866.3,833.3 1859.7,838.5 1858.3,838.2 1832.2,794.8 
	1831.7,788.9 1831.7,788.9 "/>
<polygon fill="#E15637" points="73.3,113.7 2.2,195.7 2.2,104.7 9.1,102.7 65.4,108.7 73.3,111.3 73.3,113.7 "/>
<polygon fill="#B8BAB2" points="817.5,1079.9 789.5,1079.9 786.3,1073.6 780.9,1015.8 781.5,1012.4 785,1010.5 837.4,997.1 
	843.6,997.6 844.5,1000.7 822.3,1072.1 817.5,1079.9 "/>
<polygon fill="#B07A82" points="1922.8,152.7 1922.8,241.7 1918.3,243.6 1905.1,241.8 1903.6,241.1 1899.4,235.2 1870.1,160.4 
	1868.5,153.7 1869.7,151.7 1869.8,151.6 1885.7,149.8 1915.9,150.6 1922.8,152.7 "/>
<polygon fill="#6396C6" points="1603.7,1079.9 1672.7,1007.9 1673.7,1008.9 1677.1,1016 1689.4,1073.8 1688.7,1079.9 1603.7,1079.9 
	"/>
<polygon fill="#79AACF" points="1491.6,1079.9 1482.6,1006.9 1483.3,1006.5 1496.8,1011.1 1553.1,1038.5 1556.5,1041.2 
	1556.7,1041.9 1556.7,1042.9 1552.1,1048.8 1526.6,1074.1 1518.6,1079.9 1491.6,1079.9 "/>
<polygon fill="#B5ADA5" points="725.4,1079.9 654.4,1079.9 656.9,1074.4 731.1,994.9 733.9,993.5 735.3,994.4 735.9,996.1 
	728.4,1071.2 725.4,1079.9 "/>
<polygon fill="#BC7D80" points="212.3,993.9 212.3,992.9 215.3,990.3 254.4,981.3 257.9,981.3 259.3,983.9 257.3,989.9 
	251.3,1079.9 231.3,1079.9 213.1,995.2 212.3,993.9 "/>
<polygon fill="#698FC3" points="1922.8,975.9 1921.8,975.9 1912.9,968.2 1861.2,907.7 1857.9,901.7 1858.3,900.2 1861.8,898.1 
	1917,885.4 1922.8,885.9 1922.8,975.9 "/>
<polygon fill="#B8B8AC" points="725.4,1079.9 734.5,994.9 742.5,995.1 778.1,1008.2 782.5,1011.9 782.5,1014.9 751.5,1075 
	747.4,1079.9 725.4,1079.9 "/>
<polygon fill="#EA7041" points="2.2,198.7 81.7,214 82.5,217.1 81.4,225.5 82.4,276.4 80.3,283.7 2.2,202.7 2.2,198.7 "/>
<polygon fill="#759CCA" points="1861.7,899.9 1858.7,900.9 1856.7,895.6 1857.7,843.2 1859.1,839 1913.9,832 1922.8,833.9 
	1922.8,860.9 1918.3,865.4 1861.7,899.9 "/>
<polygon fill="#BBB0A5" points="732.4,995.9 654.4,1079.9 642.4,1079.9 638.3,1075.1 628.9,1050.5 628.7,1045.2 629.1,1043.7 
	638.7,1037.7 721.3,998.4 732.4,995.9 "/>
<polygon fill="#5D8EC1" points="1688.7,1079.9 1673.8,1010.9 1673.7,1008.9 1677.9,1010.8 1756.4,1077.4 1758.7,1079.9 
	1688.7,1079.9 "/>
<polygon fill="#A3BBD2" points="1179.6,1079.9 1095.5,1079.9 1037.1,1033.9 1033.9,1027.2 1040.6,1027.7 1180.3,1074.5 
	1181.6,1075.5 1179.6,1079.9 "/>
<polygon fill="#BD7979" points="2.2,959.9 97.3,952.9 100.1,966.2 101.2,985.6 99.9,991.8 87.3,992.6 7.8,975.9 2.2,972.9 
	2.2,959.9 "/>
<polygon fill="#BD8786" points="338.3,1079.9 260.3,984.9 266.7,986 360.1,1047.5 364.6,1052.1 364.9,1055 351.9,1074.9 
	347.3,1079.9 338.3,1079.9 "/>
<polygon fill="#EE9665" points="43.3,429.8 44.3,429.7 44.9,430.4 45.1,432.9 33.4,517.9 27.4,517.9 5.3,500.2 2.2,495.8 2.2,449.8 
	6.7,446 35.2,432.2 43.3,429.8 "/>
<polygon fill="#94B3D6" points="1179.6,1079.9 1181.9,1075.2 1292.4,1041.3 1301.7,1040.5 1302.7,1041.8 1302.5,1047.7 
	1295.2,1074.2 1291.6,1079.9 1179.6,1079.9 "/>
<polygon fill="#B47177" points="2.2,972.9 93.3,991.6 99.3,991.9 99.5,992.4 99.3,992.9 2.2,1019.9 2.2,972.9 "/>
<polygon fill="#ED9C7D" points="2.2,605.8 2.2,602.8 13,600.4 60.2,557.9 67.1,555.4 66.6,562.7 38.2,658.9 34.6,665.9 29.1,660.1 
	12.9,611.5 5.6,606.6 2.2,605.8 "/>
<polygon fill="#7E9ECC" points="1922.8,833.9 1859.7,838.9 1859.5,838.2 1922.8,766.9 1922.8,833.9 "/>
<polygon fill="#AD9F9F" points="1911.8,403.7 1905.5,404.3 1855.6,390.9 1850.5,387.3 1850.7,385.8 1918.2,343.7 1922.8,341.7 
	1922.8,366.7 1914.8,398.9 1911.8,403.7 "/>
<polygon fill="#DA442F" points="2.2,31.7 68,79.8 70.3,80.7 71.6,82.4 70.7,83.7 69.1,84.3 9.2,93.2 2.2,91.7 2.2,31.7 "/>
<polygon fill="#E29489" points="2.2,722.8 2.2,682.8 5.9,678.9 28,667.4 35.3,667.8 51.4,718.5 50.3,725.5 45.6,726.8 8.6,725 
	2.2,722.8 "/>
<polygon fill="#EE9B6D" points="13.2,602.8 11.3,601.8 7.4,597 2.2,576.8 2.2,495.8 32.3,518.8 32.8,519.4 32.9,521.1 16.8,595.1 
	13.2,602.8 "/>
<polygon fill="#B1B7B6" points="843.5,1000.9 843.5,997.9 844,997.7 844.5,997.9 902.1,1077.3 903.5,1079.9 859.5,1079.9 
	856,1072.9 843.7,1009.8 843.5,1000.9 "/>
<polygon fill="#AF6579" points="1922.8,152.7 1869.8,151.6 1920.5,88.6 1922.8,86.7 1922.8,152.7 "/>
<polygon fill="#B0B2B1" points="843.5,1000.9 859.5,1079.9 817.5,1079.9 843.5,1000.9 "/>
<polygon fill="#ABBAC3" points="978.5,1079.9 1025.9,1033 1031.5,1028.9 1035.3,1034.6 1044.4,1073.8 1043.5,1079.9 978.5,1079.9 
	"/>
<polygon fill="#B26B76" points="121.3,1021.9 139.3,1079.9 82.3,1079.9 83.4,1074.4 115.7,1025.3 121.3,1021.9 "/>
<polygon fill="#87AFD5" points="1301.6,1041.9 1301.7,1039.5 1303.2,1039 1392.6,1070.7 1398.5,1074.2 1398.6,1074.9 1397.6,1079.9 
	1325.6,1079.9 1321.3,1075.9 1301.6,1041.9 "/>
<polygon fill="#A9B0BB" points="1873.7,515.8 1922.8,527.8 1922.8,586.8 1920.6,590.2 1918.6,589.5 1876.1,524.5 1873.2,516.3 
	1873.7,515.8 "/>
<polygon fill="#E59787" points="34.2,667.8 2.2,682.8 2.2,605.8 3.2,605.4 15,611.5 31.4,660.8 34.2,665.8 34.7,666.3 34.2,667.8 
	"/>
<polygon fill="#B77076" points="121.3,1021.9 82.3,1079.9 75.3,1079.9 98.5,998.8 99.3,992.9 99.3,992.9 100.6,992.6 121.3,1019.2 
	121.3,1021.9 "/>
<polygon fill="#E14E34" points="2.2,91.7 70.3,82.7 74.1,100.3 73.9,111.1 73.3,111.7 2.2,104.7 2.2,91.7 "/>
<polygon fill="#B2AFAB" points="747.4,1079.9 779.5,1018.8 782.5,1014.9 789.5,1079.9 747.4,1079.9 "/>
<polygon fill="#A4B8CB" points="1043.5,1079.9 1031.5,1028.9 1032.5,1026.9 1033.2,1026.8 1033.5,1027.9 1094.4,1078.3 
	1095.5,1079.9 1043.5,1079.9 "/>
<polygon fill="#C2807E" points="52.3,873.9 47.7,875.9 2.2,919.9 2.2,863.9 47.9,871.3 51.2,870.9 52.8,872.1 52.3,873.9 "/>
<polygon fill="#547DB8" points="1889.7,1060.9 1889.7,1059.9 1922.8,979.9 1922.8,1053.9 1917.4,1057.2 1894.9,1061.7 
	1889.7,1060.9 "/>
<polygon fill="#D78E86" points="52.3,871.9 51.2,870.9 51.2,726.4 2.2,765.9 2.2,722.8 51.3,724.8 53,725.3 53.8,727 54.4,861.4 
	53,871.2 52.3,871.9 "/>
<polygon fill="#B7A39C" points="629.4,1044.9 642.4,1079.9 580.4,1079.9 628.4,1044.9 629.4,1044.9 "/>
<polygon fill="#B7C5C0" points="928.5,1079.9 918.4,999.2 917.5,995.9 918.4,993.8 929.9,988.6 934.5,988.9 934.5,1079.9 
	928.5,1079.9 "/>
<polygon fill="#E88D5C" points="43.3,429.8 2.2,449.8 2.2,404.8 8.1,405.8 42.3,428.8 43.3,429.8 "/>
<polygon fill="#709FCB" points="1518.6,1079.9 1556.7,1042.9 1568.7,1079.9 1518.6,1079.9 "/>
<polygon fill="#BB8C8A" points="364.3,1054.9 363.3,1052.9 364.3,1048 383.7,1011.2 387.1,1009 387.4,1012.9 383.3,1079.9 
	370.3,1079.9 363.3,1057.6 364.3,1054.9 "/>
<polygon fill="#7294C6" points="1861.7,899.9 1922.8,860.9 1922.8,885.9 1861.7,899.9 "/>
<polygon fill="#4A6FB2" points="1889.7,1060.9 1922.8,1053.9 1922.8,1077.4 1920.2,1080 1889.7,1079.9 1888.8,1060.9 1889.7,1060.9 
	"/>
<polygon fill="#88AAD1" points="1301.6,1041.9 1304.8,1044.8 1325.6,1079.9 1291.6,1079.9 1301.6,1041.9 "/>
<polygon fill="#AE898D" points="1903.8,240.7 1922.8,241.7 1922.8,305.7 1903.5,241 1903.8,240.7 "/>
<polygon fill="#A86171" points="2.2,1052.9 42.3,1079.9 4.7,1080 2.2,1077.4 2.2,1052.9 "/>
<polygon fill="#4A7AB7" points="1888.8,1060.9 1889.7,1079.9 1841.7,1079.9 1888.8,1060.9 "/>
<polygon fill="#E68755" points="42.3,428.8 2.2,404.8 2.2,382.8 42.3,428.8 "/>
<polygon fill="#B88386" points="364.3,1054.9 369.3,1072.6 370.3,1079.9 347.3,1079.9 364.3,1054.9 "/>
<polygon fill="#AB969C" points="1911.8,403.7 1922.8,366.7 1922.8,413.8 1914.6,408.4 1911.7,403.8 1911.8,403.7 "/>
<polygon fill="#A9A3AC" points="1911.7,403.8 1922.8,413.8 1922.8,443.8 1911.7,403.8 "/>
<polygon fill="#E89872" points="2.2,576.8 11.3,601.8 2.2,602.8 2.2,576.8 "/>
<polygon fill="#9DA5C5" points="1920.7,589.8 1922.8,586.8 1922.8,615.8 1919.8,590.8 1920.7,589.8 "/>
<polygon fill="#A6566D" points="1907.8,-0.2 1922.8,-0.3 1922.8,2.7 1907.8,-0.2 "/>
<polygon fill="#90B5D7" points="1782.7,714.8 1830.7,788.9 1830.2,789.5 1746.8,776.8 1740,774.1 1742,766.5 1778.2,717.2 
	1782.7,714.8 "/>
<polygon fill="#82ACD2" points="1831.7,788.9 1858.7,837.9 1853.1,839.6 1786.9,827.7 1778.4,824.9 1780.3,819.6 1822.6,792.6 
	1830.7,788.9 1830.7,788.9 1831.7,788.9 "/>
<polygon fill="#96BCDB" points="1782.7,714.8 1739.7,772.9 1739.1,773.3 1737.6,773.4 1702.3,756.1 1699.3,752.9 1699.6,751.4 
	1775.3,714.6 1781.4,713 1782.7,713.9 1782.7,714.8 "/>
<polygon fill="#F3945B" points="44.3,429.7 108.1,300 112.5,293.5 113.2,293.2 114.7,293.5 187.4,421.4 186.8,428.3 183.9,428.8 
	51.8,431.9 44.3,429.8 44.3,429.7 "/>
<polygon fill="#F08751" points="113.3,293.7 45.3,426.8 80.3,285.7 80.3,284.8 86.1,284.8 107.8,290.1 113.3,293.7 "/>
<polygon fill="#C7A797" points="516.4,1003.9 388.4,1007.9 388.4,1006.4 393.6,1002.7 504.5,951.3 513.7,950.7 518.4,997 
	516.4,1002.9 516.4,1003.9 "/>
<polygon fill="#C2938C" points="388.3,1006.9 388.4,1007.9 387.4,1012.9 387.1,1009.1 365.3,1048.9 363.8,1042.5 373.7,992.8 
	376,987.9 381.2,991.1 388.4,1006.2 388.3,1006.9 "/>
<polygon fill="#C8DCCC" points="935.5,987.9 934.5,987.9 930.2,982.9 904.3,924.9 904.7,921.8 909.2,918 996.1,869.8 1002.6,868.5 
	1001.1,876.3 936.2,987.8 935.5,987.9 "/>
<polygon fill="#B8CECD" points="1032.5,1026.9 935.5,987.9 935.5,987.9 1064.3,974.2 1068.3,974.5 1069.9,974.9 1071,976.1 
	1068.4,981.8 1038.5,1022 1032.5,1026.9 1032.5,1026.9 "/>
<polygon fill="#C2D4C5" points="905.5,924.9 934.5,987.9 934.5,988.9 918.5,994.9 914.5,989.6 904.1,930.8 905.5,924.9 "/>
<polygon fill="#699DC9" points="1800.7,1014.9 1672.7,1006.9 1672.7,1006.9 1674.5,1002.1 1709.4,963.2 1716.9,957.8 1802.7,1010.4 
	1805,1014.3 1800.7,1014.9 "/>
<polygon fill="#679BC8" points="1800.7,1014.9 1803.8,1014.1 1801.6,1012 1720.4,960.4 1716.7,958.9 1717.1,957.3 1723.8,955.8 
	1812.8,951.5 1814.3,952.2 1814.7,952.9 1806.7,1014.9 1805.7,1015.9 1800.7,1014.9 "/>
<polygon fill="#679BC8" points="1785.7,1013.9 1791.7,1014.9 1785.7,1013.9 "/>
<polygon fill="#679BC8" points="1770.7,1012.9 1776.7,1013.9 1770.7,1012.9 "/>
<polygon fill="#679BC8" points="1755.7,1011.9 1761.7,1012.9 1755.7,1011.9 "/>
<polygon fill="#B26C77" points="1780.8,-0.2 1839.7,-0.2 1832.7,86.7 1829.4,84.3 1782.9,7.1 1780.8,-0.2 "/>
<polygon fill="#B98788" points="1869.7,151.7 1869.7,153.7 1797.8,256.3 1795.7,257.3 1794.1,257.1 1792.4,255.4 1746.4,105.7 
	1747.3,103.6 1756.7,104.6 1859.7,145.9 1869.7,151.7 "/>
<polygon fill="#B67A80" points="1867.8,150.7 1751.5,104.6 1747.7,103.7 1747.1,103.1 1750.2,86.1 1751.8,85.2 1822.4,82.6 
	1830.7,83.7 1867.8,150.7 "/>
<polygon fill="#CD8C84" points="52.3,873.9 52.3,871.9 52.3,871.9 54.9,869.6 158.3,853.6 164.1,854.1 165.3,861.5 143.5,938 
	139.9,946.1 136.9,947 62.6,885.1 52.3,873.9 "/>
<polygon fill="#C78480" points="54.3,875.9 136.3,945.9 132.2,948.9 102.4,953.1 97.3,951.9 54.3,875.9 "/>
<polygon fill="#C2807E" points="97.3,951.9 133.5,946.8 136.3,945.9 139.3,945.9 139.7,946.4 139.8,947.8 104.7,990 100.3,992.9 
	99.3,992.9 97.3,951.9 "/>
<polygon fill="#B6A8A2" points="1850.7,385.8 1850.7,386.7 1850.5,388.4 1789.7,398.4 1774.4,398.9 1774.4,391.1 1822.3,280.9 
	1823.3,279.7 1824.7,279.7 1824.7,280.7 1850.7,385.8 "/>
<polygon fill="#C3B2A2" points="629.4,1044.9 628.4,1044.9 519.1,1003.9 517.4,1002.9 522.4,999.2 638.6,952.3 640,953.1 
	640.7,954.8 631.3,1040.9 629.4,1043.9 629.4,1044.9 "/>
<polygon fill="#C7B3A1" points="638.4,952.9 517.4,1002.9 516.4,1002.9 512.4,949.9 512.7,948.2 514.5,947.5 633.6,950.8 
	637.8,952.1 638.4,952.9 "/>
<polygon fill="#EE7B46" points="113.3,293.7 80.3,284.8 79.3,220.7 82.3,215.7 88.7,214.7 148.9,228.8 147.6,237.8 118.1,289.7 
	113.3,293.7 113.3,293.7 "/>
<polygon fill="#A8C2D6" points="1782.7,713.8 1781.7,713.8 1773.8,710 1679.6,639.3 1674.2,633.6 1674.6,632.1 1680.2,629 
	1787.1,588.6 1798.6,587.3 1785.8,703.9 1782.7,712.8 1782.7,713.8 "/>
<polygon fill="#A2BBD3" points="1782.7,712.8 1797.7,586.8 1799.1,586.7 1826.7,638.1 1826.7,639.8 1782.7,712.8 "/>
<polygon fill="#C28F89" points="377.3,987.9 365.3,1048.9 363.3,1052.9 264.8,986.9 260.3,984.9 259.3,983.9 258.3,981.9 
	258.9,981.2 261.6,980.5 371,983.8 377.2,985.3 377.3,987.9 "/>
<polygon fill="#B49490" points="1824.7,279.7 1823.7,279.7 1818.3,277.7 1798.1,261.7 1795.7,256.7 1796.7,255.7 1897.6,239.4 
	1903.8,240.7 1903.7,241.7 1824.7,279.7 "/>
<polygon fill="#C1D0C1" points="905.5,924.9 916.5,989.4 918.5,994.9 917.5,995.9 844.5,997.9 844.5,997.9 838.4,992.4 828.9,977.8 
	826.6,970.9 827.8,969 904.1,921.4 905.5,921.9 905.5,924.9 "/>
<polygon fill="#EA613C" points="80.3,214.7 79.3,213.7 73.3,111.7 73.3,111.7 81.3,112.6 126.7,129.2 128.5,130.5 85,209.8 
	80.3,214.7 "/>
<polygon fill="#DE422C" points="68.3,-0.2 136.3,-0.2 138,13.2 76.5,78.6 71.3,81.7 70.3,80.7 68.3,-0.2 "/>
<polygon fill="#73A9CF" points="1716.7,957.9 1716.7,958.9 1672.7,1006.9 1556.7,1041.9 1556.7,1041.9 1557.8,1036.3 1609.2,953.4 
	1611.6,952.4 1617,951.8 1714.4,956.5 1716.1,957.2 1716.7,957.9 "/>
<polygon fill="#A5B7C6" points="1920.7,589.8 1919.8,590.8 1826.7,638.8 1826.7,638.8 1826,622.2 1832.7,551.8 1834.5,546.6 
	1841.6,546.3 1919.7,588.8 1920.7,589.8 "/>
<polygon fill="#8BBDD9" points="1482.6,1006.9 1398.6,1074.9 1398.6,1074.9 1396.5,1068.4 1395.3,921.7 1397.3,919.3 1402.6,922.4 
	1482.9,1004.9 1483.1,1005.6 1482.6,1006.9 1482.6,1006.9 "/>
<polygon fill="#6495C6" points="1858.7,901.9 1921.8,975.9 1814.7,952.9 1814.7,952.9 1816.7,947.7 1853.1,904.6 1857.4,901.4 
	1858.7,901.9 "/>
<polygon fill="#AEABAB" points="1850.7,387.7 1850.7,386.7 1910.7,403.8 1873.7,515.8 1873.7,515.8 1872.1,515.6 1868.9,505.9 
	1849.6,390.9 1850.7,387.7 "/>
<polygon fill="#C0807F" points="138.3,947.9 139.3,946.9 147,949.2 213.8,990.4 215.3,991.9 121.3,1019.9 121.3,1019.9 
	122.1,1006.5 134,957.8 138.3,947.9 "/>
<polygon fill="#79A6CF" points="1858.7,901.9 1857.7,901.9 1852.2,899.4 1776.6,825.6 1776.3,824.3 1776.6,823.7 1857.4,838.4 
	1858.7,837.9 1859.7,837.9 1858.7,901.9 "/>
<polygon fill="#C0C5B5" points="782.5,1011.9 734.5,994.9 734.5,992.4 825.7,969.3 826.9,970.2 825.7,974.8 784.5,1011.9 
	782.5,1011.9 "/>
<polygon fill="#BFC7B9" points="784.5,1011.9 826.5,970.9 827.5,970.9 844.5,997.9 843.5,997.9 784.5,1011.9 "/>
<polygon fill="#B38A8A" points="1903.8,240.7 1796.7,255.7 1865.5,157.6 1869.7,153.7 1903.8,240.7 "/>
<polygon fill="#7CB1D3" points="1482.6,1006.9 1482.6,1005.9 1487.7,1002.2 1602.2,955.6 1609.7,954.9 1556.7,1041.9 1482.6,1006.9 
	"/>
<polygon fill="#D1D5BB" points="734.5,992.9 734.4,993.9 733.4,993.9 731.3,992.4 707.9,828.6 708.2,825.1 709,823.6 710.6,822.9 
	791.3,843.6 792.7,844.5 793.3,846.8 739.2,986.8 734.5,992.9 "/>
<polygon fill="#C0B9A9" points="732.4,992.9 733.4,993.9 732.4,995.9 629.4,1043.9 629.4,1040.9 661.9,964.7 663.3,964.1 
	669.5,965.6 726.7,989.1 732.4,992.9 "/>
<polygon fill="#CA8E87" points="215.3,991.9 213.3,991.9 211.4,982.9 221.4,877.3 224.3,869 229.2,873.7 258.8,980.4 258.3,981.9 
	258.3,981.9 215.3,991.9 "/>
<polygon fill="#ED6F41" points="80.3,214.7 123.3,135.8 125.3,133.7 129.9,140.8 149.5,222.3 149.9,229.1 149.3,229.7 82.3,215.7 
	80.3,214.7 "/>
<polygon fill="#ABC8DC" points="1181.6,1075.9 1180.6,1075.9 1073.4,981.7 1072.9,975.6 1194.6,983.8 1196.3,984.4 1197.4,985.8 
	1197.7,987.6 1184,1071.6 1181.6,1075.9 1181.6,1075.9 "/>
<polygon fill="#ADC6D4" points="1071.5,976.9 1180.6,1075.9 1033.5,1027.9 1032.5,1026.9 1067.4,980 1070.5,976.9 1071.5,976.9 "/>
<polygon fill="#F59F68" points="44.3,429.8 188.3,426.8 189.6,427.1 188.5,432.7 148.9,510.7 144.7,516.1 141.8,516.1 48.1,436.8 
	44.3,431.8 44.3,429.8 "/>
<polygon fill="#F39C69" points="44.3,431.8 142.3,514.8 134.8,517.8 38.7,520.9 32.3,518.8 32.3,518.8 43.3,434 44.3,431.8 "/>
<polygon fill="#9CBEDC" points="1181.6,1075.9 1182.6,1071.9 1203,1020.6 1205.7,1017.1 1299.7,1037.5 1301.6,1040 1301.6,1040.9 
	1181.6,1075.9 "/>
<polygon fill="#F2A07E" points="34.2,665.8 66.3,554.8 67.5,553.9 74.1,555.6 153.4,594.1 154.1,595.5 153.9,597 35.6,666.4 
	34.2,665.9 34.2,665.8 "/>
<polygon fill="#F09D74" points="67.3,554.8 66.3,554.8 13.2,602.8 32.3,519.8 36.6,522.1 66.9,552.2 67.6,553.5 67.3,554.8 "/>
<polygon fill="#E65235" points="71.3,81.7 136.3,13.7 137.9,14 138.2,24.3 129.3,120.9 126.3,130.7 123.3,129.7 72.9,85.9 
	71.3,82.6 71.3,81.7 "/>
<polygon fill="#E75637" points="71.3,82.6 123.3,129.7 73.3,111.7 70.3,82.7 71.3,82.6 "/>
<polygon fill="#EE9D8B" points="34.2,665.9 35.3,665.8 149,636.5 156.4,635.9 156.6,640.1 59.9,721.1 52.3,724.8 51.3,724.8 
	34.2,667.8 34.2,665.9 "/>
<polygon fill="#EF6A40" points="299.3,-0.2 352.4,-0.2 458.5,72.6 465.5,81.2 461.9,82.7 293.4,67 291.8,66 290.9,63.5 296.3,7.9 
	299.3,-0.2 "/>
<polygon fill="#F9A66F" points="883.4,-0.2 952.5,-0.2 952.4,6.3 918.4,82.9 916.7,84.4 806.5,34 805.4,32.9 805.2,31.4 809.5,28.2 
	883.4,-0.2 "/>
<polygon fill="#BC797D" points="1683.6,-0.2 1767.7,-0.2 1768.4,8.3 1753.8,80.6 1750.7,86.7 1750.7,86.7 1743.6,84.3 1647.2,12.3 
	1644.4,6.6 1664.4,1.7 1683.6,-0.2 "/>
<polygon fill="#F79157" points="608.4,-0.2 652.5,-0.2 708.8,48.6 714.1,55.6 712.8,57.7 584.7,65.3 583.6,64.1 584.2,58.3 604.1,5 
	608.4,-0.2 "/>
<polygon fill="#E59B8D" points="1205.6,-0.2 1338.6,-0.2 1338.8,6.4 1321,56.1 1317,63 1309,61.9 1217.6,20.3 1216.5,19.5 
	1206.5,4.4 1205.6,-0.2 "/>
<polygon fill="#EC6C40" points="465.4,80.6 355.6,2.8 352.4,-0.2 457.4,-0.2 460.4,4.7 467.7,75 467,80.3 465.4,80.6 "/>
<polygon fill="#B6747B" points="1750.7,86.7 1767.7,-0.2 1780.8,-0.2 1830.7,83.7 1826.4,84.6 1750.7,86.7 "/>
<polygon fill="#F6894F" points="608.4,-0.2 584.4,63.7 570,65.5 516.7,63.7 512.8,63 511.9,58.6 575.8,4.7 584.4,-0.2 608.4,-0.2 
	"/>
<polygon fill="#F59B62" points="805.5,31.7 805.5,32.7 805.1,33.4 803.7,34.3 720.7,56.5 714.9,56.5 715.5,49.5 740.6,4 745.4,-0.2 
	786.5,-0.2 789.6,2.2 805.1,27.9 805.5,31.7 "/>
<polygon fill="#F27C47" points="466.3,80.7 457.4,-0.2 477.4,-0.2 481.4,3.4 510.3,60.3 510.3,61.9 509.8,63.3 475.1,79.8 
	467.5,81.6 466.3,80.7 "/>
<polygon fill="#EA5A38" points="299.3,-0.2 292.3,63.7 285.3,60.7 227.2,2 229.3,-0.2 299.3,-0.2 "/>
<polygon fill="#F9AA75" points="917.5,82.7 951.9,2.7 952.5,-0.2 998.5,-0.2 1003.4,4.8 994.3,15.7 922.3,80.9 917.5,82.7 "/>
<polygon fill="#EE7D48" points="509.4,61.7 509.3,4.7 511.4,-0.2 584.4,-0.2 511.4,61.6 509.4,61.7 "/>
<polygon fill="#DF9A8C" points="1316.6,62.7 1338.6,-0.2 1370.6,-0.2 1373.5,4.9 1378.5,37.2 1378.2,38.7 1371,43 1325.3,61.7 
	1317.2,63.2 1316.6,62.7 "/>
<polygon fill="#D89286" points="1377.6,37.7 1370.6,-0.2 1467.6,-0.2 1467.6,1.2 1466.3,2.1 1385.1,36.9 1377.6,37.7 "/>
<polygon fill="#F18C55" points="713.4,54.7 655.6,3.5 652.5,-0.2 704.5,-0.2 708.1,7 714.2,46.9 713.4,54.7 "/>
<polygon fill="#EFA290" points="1205.6,-0.2 1217.6,19.6 1217.2,20.4 1212.4,22.8 1162.6,35 1153.7,35.9 1152.5,35 1154.7,28.8 
	1174.3,3.5 1179.5,-0.2 1205.6,-0.2 "/>
<polygon fill="#F1925A" points="713.4,54.7 704.5,-0.2 745.4,-0.2 714.4,55.7 714.1,56.8 713.4,56.6 713.4,54.7 "/>
<polygon fill="#F2A58A" points="1137.5,-0.2 1146.6,-0.2 1149.6,4.6 1153,29.8 1152.5,34.7 1152.5,34.7 1151.5,36.6 1149,36.8 
	1105.9,26.5 1093.3,21.3 1093.1,19.8 1096.2,16.7 1129.7,1.5 1137.5,-0.2 "/>
<polygon fill="#EC7442" points="511.4,-0.2 510.4,56.9 509.4,60.7 477.4,-0.2 511.4,-0.2 "/>
<polygon fill="#F3A17A" points="1093.5,19.7 1093.5,20.7 1092.9,21.3 1008.1,7.7 1003.6,6 998.5,-0.2 1079.6,-0.2 1084.8,4.2 
	1093.5,19.7 "/>
<polygon fill="#C4837F" points="1552.7,-0.2 1632.7,-0.2 1640.9,3 1642.2,8.7 1579.3,16.6 1570.8,16.6 1568.5,16 1555.6,5.1 
	1552.7,-0.2 "/>
<polygon fill="#F49963" points="805.5,31.7 786.5,-0.2 837.4,-0.2 835.9,4.2 813.6,26.9 805.5,31.7 "/>
<polygon fill="#F49E6A" points="809.5,29.7 837.4,-0.2 883.4,-0.2 812.8,28.9 809.5,29.7 "/>
<polygon fill="#CE8983" points="1552.7,-0.2 1568.7,14.7 1568.2,16.1 1474.1,3.7 1467.6,0.6 1467.6,-0.2 1552.7,-0.2 "/>
<polygon fill="#E14831" points="229.3,-0.2 227.3,1.7 226.8,2.4 145.2,14.6 139.7,14.7 137.3,13.7 136.3,13.7 136.3,-0.2 
	229.3,-0.2 "/>
<polygon fill="#F1A081" points="1093.5,19.7 1079.6,-0.2 1137.5,-0.2 1093.5,19.7 "/>
<polygon fill="#EFA18C" points="1152.5,34.7 1146.6,-0.2 1179.5,-0.2 1152.5,34.7 "/>
<polygon fill="#B77378" points="1642.7,7.6 1632.7,-0.2 1683.6,-0.2 1647.9,6.6 1644.7,7.7 1643.7,8.2 1642.7,7.6 "/>
<polygon fill="#F5A270" points="67.3,553.8 63.9,551.8 32.3,519.8 32.3,518.8 142.3,514.8 144.3,515.8 144.6,516.4 144.1,517.8 
	143,518.7 75.2,552.5 67.3,553.8 "/>
<polygon fill="#A1CBE1" points="1301.6,1040 1201.3,990.2 1196.6,985.9 1196.6,984.2 1327.1,894.6 1334.6,890.9 1348.1,902.3 
	1304.9,1037.8 1302.6,1039.9 1301.6,1040 "/>
<polygon fill="#91BDDB" points="1302.6,1039.9 1303.6,1037.9 1390.8,924.6 1396.6,920.9 1398.6,1074.9 1302.6,1039.9 "/>
<polygon fill="#AAB5BD" points="1872.7,515.8 1873.7,515.8 1919.7,588.8 1912.4,586.1 1835.7,545.8 1835.4,545.2 1835.6,543.8 
	1872,515.8 1872.7,515.8 "/>
<polygon fill="#C07C7C" points="138.3,947.9 121.3,1019.9 100.3,992.9 133.9,951.9 138.3,947.9 "/>
<polygon fill="#DE9589" points="54.3,870.9 52.3,871.9 52.3,725.8 59.9,724.9 160.1,742.7 164.6,744.6 163.2,751 61.5,864.8 
	54.3,870.9 "/>
<polygon fill="#EC9F8F" points="165.3,745.9 52.3,725.8 52.3,724.8 153.2,641.2 157.3,636.8 159,637.2 161.2,645.2 166.6,735 
	166,745.3 165.3,745.9 "/>
<polygon fill="#8AB3D5" points="1777.7,823.9 1776.7,823.9 1770.2,817.2 1741.2,778.6 1739.7,772.9 1739.7,772.9 1830.7,788.9 
	1779,822.4 1777.7,823.9 "/>
<polygon fill="#A1C3DF" points="1674.7,633.8 1781.7,713.8 1702.6,751.3 1699.7,751.9 1696,745.7 1674.1,643.8 1674.7,633.8 "/>
<polygon fill="#8BB8D8" points="1739.7,772.9 1775.2,820.8 1776.7,823.9 1770.6,827.9 1657.9,865.1 1651.2,865.5 1650.6,862.7 
	1734,776.4 1738.7,772.9 1739.7,772.9 "/>
<polygon fill="#A4C9E1" points="1674.7,633.8 1699.7,751.9 1699.7,752.9 1699.1,753.6 1694.4,754.9 1641.4,756 1635.6,755.2 
	1633.9,749.9 1672.3,634.2 1673.2,632.9 1674.7,632.8 1674.7,633.8 "/>
<polygon fill="#92BFDB" points="1738.7,772.9 1735.7,777.3 1651.7,862.9 1652,856.9 1699.7,752.8 1738.7,772.9 "/>
<polygon fill="#F7955A" points="189.3,426.8 188.3,426.8 114.3,293.8 121.4,293.1 218.3,316 219.3,317.3 219.2,324.2 193,420.2 
	190,426.4 189.3,426.8 "/>
<polygon fill="#F3864E" points="218.3,316.8 114.3,293.8 113.3,293.7 149.3,229.7 149.3,229.7 151.3,229.3 152.3,230.2 216,311.4 
	218.6,316.1 218.3,316.8 "/>
<polygon fill="#CBA797" points="512.4,948.9 512.4,949.9 390.7,1006.2 388.3,1006.9 388.3,1006.9 387.4,995.3 399.6,913.1 
	401.7,909.4 409.4,909.7 512.4,947.4 512.4,948.9 "/>
<polygon fill="#C99F93" points="401.3,912.9 388.3,1006.9 377.3,987.9 377.1,979.8 397.6,916.8 401.3,912.9 "/>
<polygon fill="#C2D8D0" points="1069.5,975.9 935.5,987.9 1001.1,872.6 1002.5,868.9 1003.8,866.5 1005.2,866.8 1070.1,974.6 
	1069.5,975.9 "/>
<polygon fill="#CEE1CD" points="1003.5,866.9 1002.5,868.9 905.5,921.9 904.5,921.9 901.7,918.1 894.5,873.7 896.7,870.8 
	1001.2,865.2 1003,865.4 1003.5,866.9 "/>
<polygon fill="#B3D3E0" points="1071.5,976.9 1070.5,976.9 1070.5,975.9 1078.5,966.1 1137.7,911.7 1142.4,909 1143.9,909.2 
	1195.6,982.1 1195.6,984.9 1071.5,976.9 "/>
<polygon fill="#BEDADD" points="1142.5,909.9 1070.5,975.9 1069.5,975.9 1063.6,896.2 1065,895 1137.2,905.9 1142.5,909.9 "/>
<polygon fill="#74A5CE" points="1776.7,824.9 1778.7,825.9 1813.2,943.8 1813.7,952.9 1716.7,957.9 1716.7,957.9 1717.1,951.8 
	1771.9,830.2 1776.7,824.9 "/>
<polygon fill="#74A2CC" points="1813.7,952.9 1779.3,832 1778.7,825.9 1857.7,901.9 1814.7,952.9 1813.7,952.9 "/>
<polygon fill="#699DC9" points="1743.7,956.9 1753.7,955.9 1743.7,956.9 "/>
<polygon fill="#699DC9" points="1723.7,957.9 1733.7,956.9 1723.7,957.9 "/>
<polygon fill="#74A2CC" points="1797.7,953.9 1805.7,952.9 1797.7,953.9 "/>
<polygon fill="#BF978F" points="1747.7,105.7 1793,251.3 1793.7,255.7 1787.7,258.3 1680.3,249.8 1672.6,248.1 1670.6,246.6 
	1740.7,111.7 1747.7,105.7 "/>
<polygon fill="#C3948D" points="1747.7,105.7 1743.5,110.3 1673.7,242.7 1670.7,245.7 1669.9,245.2 1653.4,126.6 1653.7,123.1 
	1654.9,121.9 1739.3,102.9 1747.7,103.7 1747.7,103.7 1747.7,105.7 "/>
<polygon fill="#C0A699" points="1671.7,246.7 1789,256.6 1793.7,255.7 1794.7,256.7 1794.5,259.4 1721.1,304.7 1719.6,304.6 
	1673.8,253.1 1671,248 1671.7,246.7 "/>
<polygon fill="#B89F97" points="1793.7,258.7 1794.7,256.7 1795.7,256.7 1823.7,279.7 1823.7,280.7 1816.9,285.5 1750.3,313.2 
	1743.1,314.4 1743.3,309.9 1782.3,268.2 1793.7,258.7 "/>
<polygon fill="#C18583" points="1747.7,103.7 1657.1,122.9 1654.7,122.7 1653.6,121.6 1641.6,13.7 1643.7,7.7 1644.7,7.7 
	1750.7,86.7 1747.7,103.7 "/>
<polygon fill="#DA9689" points="54.3,870.9 165.3,745.9 165.3,745.8 167,746.2 168.4,751.9 166.7,852.7 166,854.5 54.3,870.9 "/>
<polygon fill="#D09188" points="164.3,854.9 174,854.2 217.8,860.8 224.5,862.7 225.5,863.9 221.1,870.2 144.8,943.4 139.3,945.9 
	139.3,945.9 163.4,861.2 164.3,854.9 "/>
<polygon fill="#CA8C87" points="139.3,945.9 221.9,866.8 225.3,864.9 213.3,991.9 139.3,946.9 139.3,945.9 "/>
<polygon fill="#B3B4AF" points="1850.7,387.7 1850.7,390.7 1804,509.3 1802.7,510.2 1801.1,509.9 1800.1,508.7 1773.1,407.8 
	1772,399.5 1773.7,397.8 1850.7,387.7 "/>
<polygon fill="#B9A9A1" points="1773.7,397.8 1772.7,398.7 1772,398.5 1768.7,393 1739.3,317.1 1739.9,314.8 1823.7,280.7 
	1773.7,397.8 "/>
<polygon fill="#D6CCB2" points="709.4,823.9 709.4,824.9 644,948 639.4,952.9 638.4,952.9 638.4,952.9 633.7,944.9 598.4,835.4 
	599.2,825.8 703.1,821.8 709.4,823.9 "/>
<polygon fill="#CDC8B0" points="639.4,952.9 709.4,824.9 709.4,827.9 667.2,959.4 663.4,964.9 662.4,964.9 660.5,965.4 639.4,953.9 
	639.4,952.9 "/>
<polygon fill="#C3B9A8" points="639.4,953.9 662.4,964.9 633.4,1034.7 629.4,1040.9 639.4,953.9 "/>
<polygon fill="#D0C0A8" points="598.4,826.9 638.4,952.9 513.4,948.9 515.7,942.1 591.2,832.8 597,826.7 597.7,826.6 598.4,826.9 
	"/>
<polygon fill="#D9C1A6" points="597.4,826.9 513.4,948.9 512.4,948.9 512.4,947.9 510.3,943 509.2,835.3 510.6,826 512.1,824.8 
	520.5,823.7 580.2,823.8 596.8,826.1 597.4,826.9 "/>
<polygon fill="#B1C9CF" points="1674.7,632.8 1673.7,632.8 1672.4,631.7 1663.4,579.5 1664.4,573.4 1667.8,572.2 1798.4,585.1 
	1798.7,586.8 1797.7,586.8 1674.7,632.8 "/>
<polygon fill="#A9BBC8" points="1798.7,586.8 1798.7,585.8 1798.3,584.5 1829.2,549.3 1835.7,545.8 1826.7,638.8 1799.4,589.2 
	1798.7,586.8 "/>
<polygon fill="#D3A193" points="258.3,981.9 258.3,980.9 260.3,974.9 346.9,836.6 348,835.5 349.5,835.4 352.6,838.4 402.1,907.8 
	402,909.2 394.9,915.3 260.3,981.9 258.3,981.9 "/>
<polygon fill="#CA9B90" points="260.3,981.9 397.5,911.8 401.4,908.9 402.4,909.9 377.3,985.9 260.3,981.9 "/>
<polygon fill="#D0D9C4" points="896.5,871.9 892.6,880.6 835.1,963.3 827.5,970.9 826.5,970.9 826.4,969.9 822.4,964.1 792,854.6 
	792.4,844.9 793.9,844.2 888.4,868 896.1,871.2 896.5,871.9 "/>
<polygon fill="#C9D7C5" points="828.5,969.9 895.5,873.9 904.5,921.9 831.2,968.7 828.5,969.9 "/>
<polygon fill="#EB5C3A" points="137.3,13.7 139.3,13.6 256.3,104.1 261.1,106.3 263.1,112.2 262,113.5 134.2,132.5 128.3,130.7 
	126.3,130.7 137.3,13.7 "/>
<polygon fill="#EE6D41" points="128.3,130.7 262.3,112.7 262.7,113.3 262.5,114.7 156,226.1 151.3,229.7 149.3,229.7 125.3,133.7 
	128.3,130.7 "/>
<polygon fill="#81B2D3" points="1776.7,824.9 1716.7,957.9 1715.7,957.9 1705.8,947.6 1649.4,867.2 1650,865.2 1776.7,823.9 
	1776.7,824.9 "/>
<polygon fill="#86BBD9" points="1609.7,954.9 1482.6,1005.9 1482.6,1005.9 1480.5,997.4 1482.2,920 1489.7,918.1 1609.2,951.7 
	1610.6,952.5 1610.7,953.9 1609.7,954.9 "/>
<polygon fill="#7CB1D3" points="1610.7,953.9 1610.7,952.9 1611.9,946.2 1645.4,871.3 1649.7,866.9 1715.7,957.9 1610.7,953.9 "/>
<polygon fill="#9CC9E0" points="1396.6,920.9 1303.6,1037.9 1344.4,907.1 1347.6,901.9 1354.6,901.9 1399.1,917.1 1422.5,916.8 
	1428.8,918.9 1425.8,921.7 1402.2,921.5 1398.6,919.9 1396.6,920.9 "/>
<polygon fill="#91C2DD" points="1398.6,919.9 1423.4,919.9 1428.6,918.9 1432.9,916.9 1481.3,916.9 1482.7,917.4 1483.6,918.9 
	1482.6,1005.9 1398.6,919.9 "/>
<polygon fill="#B0B4B3" points="1802.7,509.8 1850.7,390.7 1872.7,515.8 1872.7,515.8 1809.3,512.7 1802.7,509.8 "/>
<polygon fill="#C7CFBA" points="792.4,846.9 826.4,969.9 740.3,992.2 734.5,992.9 790.2,850 792.4,846.9 "/>
<polygon fill="#CBC9B2" points="663.4,964.9 709.4,827.9 732.4,992.9 663.4,964.9 "/>
<polygon fill="#E2D8B8" points="709.4,823.9 598.4,826.9 598.4,826.9 602.9,821.1 713.8,753.5 715.2,754.3 715.9,756.8 711.6,822.4 
	710.4,823.9 709.4,823.9 "/>
<polygon fill="#DDE3C6" points="793.5,844.9 791.5,844.9 780.6,838.9 749.6,814.5 746.9,807.6 899.4,783 899.1,787.3 800,843.2 
	793.5,844.9 "/>
<polygon fill="#DCDDBE" points="746.4,808.9 791.5,844.9 710.4,823.9 710.4,822.9 713.3,820.2 745.1,808.3 746.4,808.9 "/>
<polygon fill="#D69C91" points="348.3,836.9 258.3,980.9 225.3,868.9 225.3,863.9 225.8,863.2 340.3,836.5 348.3,836.9 "/>
<polygon fill="#B8DBEA" points="1195.6,984.9 1194.6,982.9 1169.2,871.5 1169.6,869.9 1174.5,866 1244.5,837.2 1251.6,836.7 
	1251.1,842.4 1202.2,975 1196.6,984.9 1196.6,984.9 1195.6,984.9 "/>
<polygon fill="#A0C4DE" points="1196.6,985.9 1299.6,1038.9 1205.6,1017.9 1203.6,1016.5 1196.6,986.9 1196.6,985.9 "/>
<polygon fill="#A3C3DF" points="1196.6,986.9 1205.6,1017.9 1184.7,1068.6 1182.6,1071.9 1195.6,989.6 1196.6,986.9 "/>
<polygon fill="#F9A96F" points="144.3,515.8 189.3,426.8 189.3,426.8 194.9,425.4 269,434.7 275.6,436.6 276.8,437.8 277,439.4 
	238.1,498.5 231.9,505.5 153.8,517.4 144.3,515.8 144.3,515.8 "/>
<polygon fill="#F7A676" points="67.3,553.8 143.3,516.8 147,528.9 154.2,586.7 153.3,594.8 67.3,554.8 67.3,553.8 "/>
<polygon fill="#F9AB7A" points="153.3,594.8 143.3,516.8 144.3,516.8 152.2,519 214.6,556.7 219.7,562.9 214.5,567.3 160.7,594.7 
	153.3,595.8 153.3,594.8 "/>
<polygon fill="#F6AC84" points="153.3,595.8 219.3,562.8 219.9,563.3 220.1,570.1 202.1,644.4 198.9,651.7 196,652.1 153.3,597.5 
	153.3,595.8 "/>
<polygon fill="#F2A284" points="158.3,636.8 157.3,636.8 35.3,665.8 153.3,596.8 153.3,596.8 157.6,614.4 159.5,635.5 158.3,636.8 
	"/>
<polygon fill="#F47746" points="293.3,65.7 462.4,81.7 457,86.6 370.9,122 361.8,124.1 351.3,117.8 295.6,70.7 293.3,65.7 "/>
<polygon fill="#F5844E" points="361.4,122.7 459.9,83.3 462.4,81.7 465.4,80.6 467.4,80.7 467.8,83.7 444.3,151.8 440.9,157.8 
	432.8,156.9 362,125.9 360.9,124.8 361.4,122.7 "/>
<polygon fill="#F37044" points="361.4,122.7 361.3,124.7 355.8,125.9 270.5,115.8 262.3,112.7 262.3,112.7 262.3,111.7 287.5,69 
	292.3,65.7 293.3,65.7 357.6,120.5 361.4,122.7 "/>
<polygon fill="#ED623C" points="292.3,65.7 262.3,111.7 260.3,106.7 256.9,101.4 227.3,7.4 227.3,1.7 227.3,1.7 232.5,5.3 287.2,60 
	292.3,63.7 292.3,65.7 "/>
<polygon fill="#FAAF73" points="805.5,32.7 806.5,32.7 815.8,41.5 890.3,136.1 892.2,141.1 891.5,142.5 885.8,145.3 783.1,176 
	775,175.7 775.1,166.6 803.9,35.2 805.5,32.7 "/>
<polygon fill="#FAB07C" points="1002.5,4.7 1003.5,4.7 1004.9,9.1 1001.9,121.4 992.5,121.7 922.8,89.5 916.3,85.1 916.5,83.7 
	1002.5,4.7 "/>
<polygon fill="#FAAE74" points="916.5,83.7 916.5,84.7 915.5,90.9 896.8,135 891.5,140.7 806.5,32.7 916.5,83.7 "/>
<polygon fill="#F89A5D" points="584.4,64.7 593.4,63.7 594.9,65.4 718.4,100 719.1,101.3 718.7,102.8 717.5,103.8 576.3,120.1 
	575,117.8 580.5,73.4 584.4,64.7 "/>
<polygon fill="#F89C5F" points="718.4,100.7 590.3,65.7 593.4,63.7 713.4,56.6 713.4,56.7 717.2,70 719.8,95.2 718.4,100.7 "/>
<polygon fill="#F69055" points="584.4,64.7 576.4,117.7 570.6,116.8 509.6,63.3 509.4,62.7 509.4,61.7 584.4,63.7 584.4,64.7 "/>
<polygon fill="#F2AE98" points="1217.6,19.6 1218.6,19.7 1263.7,138.4 1263.9,146 1257.2,146.1 1179.1,119.8 1173.9,116.3 
	1175.2,109.1 1213.3,25.1 1217.6,19.7 1217.6,19.6 "/>
<polygon fill="#EDAC96" points="1263.6,145.7 1218.6,19.7 1220.6,20.7 1309,100.3 1309.1,101.8 1270,144.3 1265,147.2 1263.6,145.7 
	"/>
<polygon fill="#EAA693" points="1308.6,100.7 1220.6,20.7 1316.6,62.7 1316.6,62.7 1317.4,64.1 1311.8,93.2 1308.6,100.7 "/>
<polygon fill="#FAAA6D" points="718.4,102.7 718.4,101.7 794.4,39.1 804.5,32.7 805.5,32.7 775.5,175.7 774.8,176 769.4,172 
	718.4,103.4 718.4,102.7 "/>
<polygon fill="#F9A265" points="804.5,32.7 718.4,101.7 713.4,56.7 714.4,55.7 804.5,32.7 "/>
<polygon fill="#F68C52" points="466.4,82.7 467.4,80.7 509.4,62.7 509.4,62.7 513.1,76.9 521.5,156 520.8,161.3 515.6,158.4 
	466.4,82.7 "/>
<polygon fill="#DC9C8E" points="1377.6,37.7 1466.6,0.6 1467.5,2.7 1412.3,106.7 1408,112.1 1406.5,112.2 1404.6,110.8 1377.4,44.7 
	1377.6,37.7 "/>
<polygon fill="#E2A293" points="1377.6,38.7 1405.1,107.8 1405.6,110.7 1398.8,109.5 1323,68.9 1316.6,63.7 1316.6,62.7 
	1377.6,38.7 "/>
<polygon fill="#D19488" points="1466.6,2.7 1466.6,0.7 1467.6,0.6 1568.7,15.7 1569.1,17 1481.5,128 1474.6,132.8 1473.1,130.8 
	1465.4,9.4 1466.6,2.7 "/>
<polygon fill="#F2A995" points="1217.6,19.7 1174.6,115.7 1173,115.7 1169.8,109.7 1151.2,41.4 1151.6,35.7 1152.5,34.7 
	1217.6,19.7 "/>
<polygon fill="#F8B091" points="1151.6,35.7 1173.6,115.7 1173.1,117.3 1049.5,110.7 1046.2,109.7 1046.9,102.8 1143.1,37.1 
	1149.5,35.7 1151.6,35.7 "/>
<polygon fill="#F5AC8A" points="1149.5,35.7 1048.5,103.7 1049.5,96.8 1093.5,20.7 1149.5,35.7 "/>
<polygon fill="#F8AC83" points="1093.5,20.7 1049.9,100 1048.5,103.7 1045.5,108.7 1044.8,109 1043.4,108.3 1004.9,15.9 1003.5,8.7 
	1003.5,4.7 1093.5,20.7 "/>
<polygon fill="#CA918A" points="1568.7,16.7 1568.7,14.7 1578,23.2 1654.7,121.7 1654.7,122.7 1654.7,122.7 1646.3,126.4 
	1570,139.5 1568.6,138.2 1567.6,132.4 1566.5,27.3 1568.7,16.7 "/>
<polygon fill="#C58884" points="1654.7,121.7 1569.7,15.6 1643.7,7.7 1654.7,121.7 "/>
<polygon fill="#E95838" points="227.3,1.7 260.3,106.7 257.1,107.7 140.7,16.2 139.3,13.6 227.3,1.7 "/>
<polygon fill="#FAAD78" points="219.3,562.8 144.3,516.8 144.3,515.8 229,504.8 232.3,503.8 232.9,504.4 223.2,557.3 220.9,562.7 
	219.3,562.8 219.3,562.8 "/>
<polygon fill="#B1D6E7" points="1196.6,984.9 1251.6,836.9 1252.2,836.5 1259.4,839.4 1331.2,886.4 1335.2,890.6 1334.6,891.9 
	1196.6,984.9 "/>
<polygon fill="#A3D0E4" points="1334.6,891.9 1334.6,890.9 1335.5,889.6 1443.4,856 1449.5,856.1 1448.4,861.3 1405.2,912.7 
	1397.6,918.9 1347.6,901.9 1334.6,891.9 "/>
<polygon fill="#AFBDC0" points="1835.7,545.8 1798.7,584.8 1796.9,574.5 1799.7,519.9 1801.1,513.1 1807.4,513.2 1833.2,540.1 
	1835.7,544.8 1835.7,545.8 "/>
<polygon fill="#AEB8BB" points="1835.7,544.8 1802.7,511.8 1802.7,509.8 1802.7,509.8 1872.7,515.8 1835.7,544.8 "/>
<polygon fill="#F2A692" points="158.3,636.8 158.3,635.8 163.5,635.9 198.3,651.8 198.8,652.4 199.1,654.7 169.9,740.7 167.6,745.1 
	166.3,745.9 165.3,745.8 158.3,636.8 "/>
<polygon fill="#96C3DD" points="1699.7,752.8 1652,861.4 1651.7,862.9 1650.7,864.9 1649.1,864.8 1646.3,856 1632.4,755.3 
	1633.2,753.9 1699.7,752.8 "/>
<polygon fill="#B5D3DC" points="1673.7,631.8 1673.7,633.8 1663.1,646.3 1590.6,712.8 1584.5,713.5 1601.6,562.1 1603.1,557.4 
	1609.9,559 1673.7,631.8 "/>
<polygon fill="#A9CEE3" points="1585.7,714.8 1673.7,633.8 1634.7,753.8 1633.7,753.9 1627.9,751.5 1588.6,720.3 1585.2,716.2 
	1585.3,715.4 1585.7,714.8 "/>
<polygon fill="#F9A163" points="276.3,437.8 189.3,426.8 218.1,320.7 218.3,317.8 224.9,317 295.4,332.8 299.5,334.5 300.4,336.9 
	279.9,431.1 277,437.3 276.3,437.8 "/>
<polygon fill="#F79559" points="299.3,334.7 218.3,317.8 218.3,316.8 218.3,316.7 220.4,311.2 246.7,271.4 250.5,266.9 251.9,266.1 
	301.1,256.1 304.5,256 305.8,257.1 301.4,330.5 300.1,334.2 299.3,334.7 "/>
<polygon fill="#F47D48" points="151.3,229.7 153.6,225.9 262.3,113.7 263.8,117 253.5,262.8 251.3,267.7 251.3,267.7 243.1,267.2 
	158.3,235.3 151.3,230.7 151.3,229.7 "/>
<polygon fill="#F68950" points="151.3,230.7 251.3,267.7 218.3,316.7 150.9,232 151.3,230.7 "/>
<polygon fill="#D5B69E" points="511.4,825.9 512.4,947.9 505.4,945.9 406.8,898.3 401.2,894.3 400.9,892.9 505.2,827.3 510.8,825.5 
	511.4,825.9 "/>
<polygon fill="#D1AD99" points="401.4,893.9 505.4,945.9 402.4,909.9 401.4,908.9 400.5,894.2 401.4,893.9 "/>
<polygon fill="#D3EADF" points="1003.5,866.9 1003.5,865.9 1005.9,858.9 1067.9,732.9 1071.9,733 1066.6,883.9 1065,893.7 
	1058,894.2 1012.1,872.4 1004.5,866.9 1003.5,866.9 "/>
<polygon fill="#C4DDD9" points="1004.5,866.9 1063.5,894.9 1064.5,895.9 1069.5,974.9 1007.4,873.2 1004.5,866.9 "/>
<polygon fill="#DCEEDB" points="1070.5,731.8 1005.8,863.5 1003.5,865.9 1002.5,865.9 995.7,862.2 922.5,790.9 918,784.5 
	918.7,783.2 1063.7,728.3 1071.8,727.6 1070.5,731.8 "/>
<polygon fill="#D6E7D1" points="918.5,784.9 1002.5,865.9 896.5,871.9 896.5,871.9 895.2,868.8 914.4,790.8 918.5,784.9 "/>
<polygon fill="#B8D8E7" points="1170.6,870.9 1194.6,982.9 1143.5,909.9 1144.7,904 1165.3,874.6 1170.6,870.9 "/>
<polygon fill="#C0DDE4" points="1170.6,870.9 1143.5,909.9 1142.5,909.9 1065.5,895.9 1066.6,893.8 1164,868.4 1170.3,868.4 
	1170.6,869.9 1170.6,870.9 "/>
<polygon fill="#D4ECE8" points="1066.5,894.9 1065.5,895.9 1064.5,895.9 1063.5,894.9 1070.5,731.8 1071.5,727.8 1072.8,727.1 
	1079.3,730.4 1143,777.6 1146.5,779.6 1148.7,782.7 1148.5,785 1072.3,889.7 1066.5,894.9 "/>
<polygon fill="#C9B29D" points="1671.7,246.7 1671.7,247.7 1668.4,252.5 1574.7,338.3 1571.3,340.1 1570,339.3 1570.5,332.5 
	1614.3,202 1616.1,199.4 1617.5,198.9 1664.9,238.9 1670.7,245.7 1670.7,245.7 1671.7,246.7 "/>
<polygon fill="#CC9E91" points="1570.6,138.7 1654.7,122.7 1654.7,125.7 1652.1,134.2 1622.8,192.8 1618,198.9 1612.2,195.8 
	1571.9,144.4 1570,140 1570.6,138.7 "/>
<polygon fill="#C8A194" points="1617.7,198.7 1654.7,125.7 1670.7,245.7 1617.7,199.7 1617.3,199 1617.7,198.7 "/>
<polygon fill="#C5B4A2" points="1571.7,339.7 1671.7,247.7 1719.7,303.7 1719.6,305.3 1580.1,340.2 1571.7,339.7 "/>
<polygon fill="#BFB7A7" points="1719.7,304.7 1719.7,303.7 1720.7,303.7 1740.7,314.7 1740.7,316.7 1668.5,426.3 1662.3,430.6 
	1663.1,424.5 1715,311 1719.7,304.7 "/>
<polygon fill="#BDA69C" points="1740.7,314.7 1720.7,303.7 1793.7,258.7 1742.7,313.7 1740.7,314.7 "/>
<polygon fill="#E29F8F" points="166.3,745.9 166.3,744.9 173,744.1 231.4,756.6 232.8,757.5 232.4,762.9 230.4,762.5 171.9,848.8 
	165.3,853.9 166.3,745.9 "/>
<polygon fill="#DD9D8F" points="165.3,853.9 229.4,762.2 231.3,762.9 233.1,773.6 226.4,862.3 225.3,863.9 165.3,854.9 165.3,853.9 
	"/>
<polygon fill="#BACAC3" points="1667.7,573.8 1664.7,573.8 1663.3,572.9 1643.7,481.3 1644.1,479.6 1646.1,477.9 1798.7,507.3 
	1801.7,508.8 1801.7,509.8 1798.1,514.4 1667.7,573.8 "/>
<polygon fill="#B9BDB4" points="1801.7,508.8 1798.7,508.8 1664.1,441.4 1659.4,437.8 1659.6,436.3 1764.7,399.1 1772.7,398.7 
	1772.7,398.7 1801.7,508.8 "/>
<polygon fill="#B3C5C5" points="1667.7,573.8 1801.7,509.8 1802.7,509.8 1798.7,585.8 1667.7,573.8 "/>
<polygon fill="#BBB8AB" points="1772.7,398.7 1659.7,436.8 1662.7,430.8 1735.9,321.4 1740.7,316.7 1772.7,398.7 "/>
<polygon fill="#E6D5B5" points="713.4,753.9 598.4,826.9 597.4,826.9 597.4,826.9 594.3,820.8 580.8,750.2 580.4,744.2 580.9,742.4 
	583,740.7 706.4,750.8 712.9,753.1 713.4,753.9 "/>
<polygon fill="#E8CBAA" points="581.4,742.8 581.4,743.8 576.8,751.4 519,819.9 512.4,825.8 511.4,825.9 508.9,823 475.8,743.4 
	477.4,737.7 571.7,739.8 581.4,742.8 "/>
<polygon fill="#E3CDAD" points="512.4,825.8 581.4,743.8 597.4,826.9 512.4,825.8 "/>
<polygon fill="#B9D2D2" points="1664.7,572.8 1664.7,573.8 1673.7,631.8 1604.7,556.8 1604.5,554.5 1611.7,554.5 1661.6,570.4 
	1664.7,572.8 "/>
<polygon fill="#E7B39C" points="349.3,835.9 348.3,835.9 343.2,832.3 292.8,767.3 293.5,762.5 428.2,750 435.1,750.6 436.5,751.5 
	435,755.2 354.9,833.4 349.3,835.9 "/>
<polygon fill="#E1A795" points="292.3,763.8 348.3,835.9 348.3,836.9 229.8,863.5 225.3,863.9 225.3,862.9 290.3,764 291.7,763.5 
	292.3,763.8 "/>
<polygon fill="#E0B49C" points="349.3,835.9 431.5,756.2 436.4,752.8 436.7,760.8 405.7,884.1 401.4,892.9 401.4,893.9 401.3,893.9 
	398.4,892.5 351.3,838.9 349.3,835.9 "/>
<polygon fill="#D8AC98" points="351.3,838.9 401.3,893.9 401.3,907.9 353.3,842.8 351.3,838.9 "/>
<polygon fill="#D9E4CA" points="896.5,868.9 896.5,871.9 793.5,844.9 900.5,783.9 901.4,783.9 902.5,785.4 896.5,868.9 "/>
<polygon fill="#F47E4B" points="262.3,116.7 262.3,112.7 361.3,124.7 361.4,124.7 360.6,132.2 309.1,249.2 304.3,256.7 302.3,257.7 
	298.4,251.6 262.3,116.7 "/>
<polygon fill="#87BAD8" points="1649.7,864.9 1650.7,864.9 1610.7,952.9 1609.7,952.9 1606.9,947.9 1594.8,874.5 1595,869.6 
	1596,868.2 1597.6,867.5 1644.2,863.1 1649.7,864.9 "/>
<polygon fill="#8ABDDA" points="1595.7,869.9 1609.7,952.9 1603.4,952 1483.6,918.9 1483.6,917.9 1483.9,917.2 1488.8,913.9 
	1588.1,870.9 1595.7,869.9 "/>
<polygon fill="#9DCCE1" points="1397.6,918.9 1449.6,856.9 1449.7,856.2 1487.3,821.2 1491.3,819.4 1492.5,820.4 1493.1,822.1 
	1485.8,913 1483.6,917.9 1483.6,917.9 1476.8,918.9 1397.6,918.9 "/>
<polygon fill="#F2E5C0" points="714.4,753.9 713.4,753.9 713.4,753.8 708.1,748.1 658.4,656.2 657.4,648.8 750.6,631.9 758.9,632 
	758.9,640.8 719.1,746.8 715.2,753.6 714.4,753.9 "/>
<polygon fill="#E2E4C5" points="746.4,808.9 745.4,808.9 740.7,804.8 716.8,763.4 714.4,755.8 714.4,753.9 714.4,753.8 722.6,753 
	899.2,781.7 900.5,783.9 900.5,783.9 746.4,808.9 "/>
<polygon fill="#E0DEBD" points="714.4,755.8 745.4,808.9 710.4,822.9 714.4,755.8 "/>
<polygon fill="#C6E6F0" points="1147.5,784.9 1147.6,782.9 1148.9,782.3 1155.4,784.7 1249.2,833.1 1251.7,835.4 1251.6,836.9 
	1170.6,869.9 1170.6,868.9 1167.1,863.7 1147.6,791.7 1147.5,784.9 "/>
<polygon fill="#FAB179" points="232.3,503.8 272.3,443.9 276.3,439.8 320.2,547.1 321.7,554.8 315.3,554.2 238,509.7 232.3,503.8 
	"/>
<polygon fill="#FBB77A" points="321.3,554.8 276.3,439.8 276.3,438.8 282.3,439.9 356.8,489.4 359.9,492.6 360,494.1 328.3,549.3 
	322.6,556 321.3,554.8 "/>
<polygon fill="#FBB274" points="356.3,490.8 280.8,440.9 276.3,438.8 276.3,437.8 276.3,437.8 285.6,431.4 310.1,419.7 311.6,420 
	352.1,480.1 356.3,490.8 "/>
<polygon fill="#FAB286" points="219.3,562.8 220.3,562.8 227.4,559.8 311.2,554.8 319.5,555.8 321,558.9 199.7,652.3 198.3,651.9 
	219.3,562.8 "/>
<polygon fill="#F5A988" points="196.3,650.8 158.3,635.8 153.3,596.8 196.3,650.8 "/>
<polygon fill="#F68B51" points="304.3,256.7 361,126.1 361.4,124.7 369.3,126.9 440.3,157.7 440.6,158.4 440,159.7 316,250.9 
	305.3,256.7 304.3,256.7 "/>
<polygon fill="#F68F54" points="466.4,82.7 519.4,161.7 517.7,163.8 444.7,159.9 440.3,157.7 466.4,82.7 "/>
<polygon fill="#FDC37F" points="775.5,175.7 891.5,141.7 892.2,142.3 893.5,147 896.1,262.1 889.9,263.5 778.4,180.9 775.2,177.1 
	775.5,175.7 "/>
<polygon fill="#FBB77E" points="891.5,140.7 916.5,84.7 1000.5,122.7 1000.8,123.5 999.8,124.7 893.8,142.7 891.5,141.7 
	891.5,141.7 891.5,140.7 "/>
<polygon fill="#FAB182" points="1003.5,8.7 1044.5,108.7 1039,112.5 1007.5,123 1000.5,122.7 1000.5,122.7 1002.5,13.5 1003.5,8.7 
	"/>
<polygon fill="#F9A362" points="576.4,119.7 713.4,102.7 717.4,102.7 713.9,108.6 628.9,179 620.4,183.5 580.3,129.1 576,120.3 
	576.4,119.7 "/>
<polygon fill="#FAAD6A" points="620.4,182.7 717.4,102.7 718.4,102.7 718.5,102.7 721.9,110.8 732,178.7 731.8,181.2 731,182.9 
	729.4,184.1 621.8,184.9 620.4,183.7 620.4,182.7 "/>
<polygon fill="#F79357" points="518.4,162.7 519.4,161.7 509.4,62.7 576.4,117.7 576.4,119.7 576.4,119.7 573.3,123.5 523.1,163.4 
	521.7,164 519.5,163.7 518.4,162.7 "/>
<polygon fill="#F89C5F" points="713.4,102.7 708.4,103.7 713.4,102.7 "/>
<polygon fill="#F3BAA0" points="1173.6,116.7 1173.6,115.7 1174.6,115.7 1177.2,117 1263.6,145.7 1264.6,146.7 1265.2,148 
	1260.2,154 1196.5,208.5 1194.9,208.5 1193.6,207.6 1190.8,200.3 1173.4,124.6 1172.9,118.2 1173.6,116.7 "/>
<polygon fill="#EBB79E" points="1264.6,147.7 1264.6,146.7 1308.6,101.7 1309.4,102 1310.4,104.4 1325.8,223.6 1325.7,227.5 
	1320,226.4 1269,156 1264.6,147.7 "/>
<polygon fill="#E7A895" points="1316.6,63.7 1405.6,110.7 1406.6,111.7 1406.3,113.3 1395.5,113.5 1324.3,105.6 1308.6,101.7 
	1308.6,100.7 1316.6,63.7 "/>
<polygon fill="#FBB36F" points="730.4,181.7 718.5,102.7 771.9,172.3 775.5,175.7 775.5,176.7 774.9,177.4 740.3,183.4 730.4,181.7 
	"/>
<polygon fill="#DB9F91" points="1466.6,2.7 1474.6,131.7 1468.9,133 1412.4,115.5 1407.6,111.7 1466.6,2.7 "/>
<polygon fill="#DFAF9A" points="1407.6,111.7 1471.7,131.8 1474.6,131.7 1475.6,132.7 1475.9,133.4 1475.3,134.7 1390,215.3 
	1384.9,218 1383.7,217 1403.6,118.8 1406.6,112.7 1406.6,111.7 1407.6,111.7 "/>
<polygon fill="#D3998E" points="1568.7,16.7 1569.7,138.6 1564.8,140.5 1487.3,135.7 1475.6,132.7 1566.1,19 1568.7,16.7 "/>
<polygon fill="#FBBE95" points="1173.6,116.7 1173.6,117.7 1167.9,126.3 1075.4,233.4 1073.2,234.2 1071.8,233.5 1071,232.1 
	1044.7,118.1 1045.5,108.7 1173.6,116.7 "/>
<polygon fill="#FCC08F" points="1045.5,108.7 1072.5,232.7 1071.2,233.1 1067.1,228.8 1002.5,130.5 1000.5,123.7 1000.5,122.7 
	1044.5,108.7 1045.5,108.7 "/>
<polygon fill="#D5A897" points="1475.6,132.7 1570.6,138.7 1570.7,139.7 1568,144.4 1502.6,214.9 1496.1,219.2 1494.7,218.5 
	1492.6,214 1474.4,141 1474.6,133.7 1475.6,132.7 "/>
<polygon fill="#FBB47D" points="321.3,556.8 220.3,562.8 232.3,503.8 321.3,554.8 322.3,555.8 322.6,556.2 322.2,557.1 321.3,556.8 
	"/>
<polygon fill="#B7DEEB" points="1251.6,836.9 1251.6,835.9 1251.7,835.1 1255.9,831.1 1353.4,766.8 1359.3,764.5 1360.5,765.5 
	1360.7,773.4 1339.1,882.8 1335.6,890.9 1334.6,890.9 1251.6,836.9 "/>
<polygon fill="#AFD9E9" points="1335.6,890.9 1359.4,769.8 1359.6,764.9 1360.2,764.5 1361.6,764.6 1440.2,845.5 1398.7,769.6 
	1396.2,762.3 1398.8,760.9 1451.6,777.6 1462.6,771.4 1471,729.8 1475.3,723.9 1490.3,809.3 1490.4,817.2 1484.5,815 1468.1,794.3 
	1463.7,789.9 1453.6,845.7 1449.6,856.9 1449.6,856.9 1335.6,890.9 "/>
<polygon fill="#F3AF99" points="198.3,651.9 212.5,652 339.5,671.8 343.7,673.1 344.9,674.3 344.6,677.4 233.6,758.4 232.3,757.9 
	231.3,757.8 227.3,752.4 198.7,663.1 198.3,651.9 "/>
<polygon fill="#EDA693" points="198.3,653.8 231.3,757.8 166.3,744.9 195.9,658.7 198.3,653.8 "/>
<polygon fill="#9BCAE1" points="1491.6,820.9 1491.6,819.9 1492.7,817.9 1626.6,755.7 1633.7,754.8 1633.7,757.8 1631.6,769.1 
	1601.3,860.9 1596.7,868.9 1596.7,868.9 1583.4,865.5 1495.6,824.5 1491.6,820.9 "/>
<polygon fill="#A6CFE3" points="1633.7,754.8 1497.8,817.3 1492.6,818.9 1494.7,813.7 1576.4,722.3 1585.7,715.8 1633.7,753.9 
	1633.7,754.8 "/>
<polygon fill="#92C4DD" points="1596.7,868.9 1632.7,759.5 1633.7,757.8 1649.7,864.9 1596.7,868.9 "/>
<polygon fill="#BFDBDC" points="1604.7,554.8 1604.7,556.8 1585.7,714.8 1585.7,714.8 1584.3,715.2 1579.3,710.6 1491.4,587.3 
	1488,580.2 1488.7,578.8 1603.2,554 1604.7,554.8 "/>
<polygon fill="#AED5E8" points="1584.7,714.8 1585.7,714.8 1585.7,715.8 1491.6,819.9 1490.6,819.9 1489.6,817.9 1474.6,723.8 
	1475.7,715.9 1481,714.8 1575.6,712.7 1584.7,714.8 "/>
<polygon fill="#FAAD6B" points="311.3,420.8 310.3,420.7 298.7,352 299.3,334.7 299.3,334.7 305.7,332.6 454.4,331.4 456,331.9 
	456.8,333.1 454.4,337.2 381.9,407.8 378.3,409.4 318.7,421.2 311.3,420.8 "/>
<polygon fill="#FAA96A" points="299.3,336.7 310.3,420.7 276.3,437.8 299.3,336.7 "/>
<polygon fill="#F79857" points="305.3,256.7 439.4,158.7 442.1,163.2 457.8,243 457.1,245.5 443.9,248.6 320.2,259.5 307.5,259.1 
	305.3,257.7 305.3,256.7 "/>
<polygon fill="#F9A261" points="305.3,257.7 307.3,257.7 319.3,264.4 324.2,268.3 325.4,270.9 365.8,290.7 371.4,291 375.1,293.1 
	376.6,296 416.4,315.5 422.4,316 426.1,318.1 428.2,321.2 444.1,328.9 446.4,332.7 299.3,334.7 302.5,267.3 305.3,257.7 "/>
<polygon fill="#F5844E" points="262.3,116.7 266,123.8 302.3,257.7 251.3,267.7 262.3,116.7 "/>
<polygon fill="#E1BDA1" points="401.4,892.9 436.4,752.8 436.4,750.6 437.8,750.4 510.4,822.9 511.4,825.9 401.4,892.9 "/>
<polygon fill="#E8F3DE" points="1072.5,727.8 1071.5,727.8 918.5,783.9 918.2,783.2 920.5,777.9 1001.5,666.1 1003.5,665.3 
	1069.2,722.4 1072.8,726.4 1072.5,727.8 "/>
<polygon fill="#DCE8D0" points="896.5,868.9 901.5,783.9 902,783.1 917.1,782.7 918.5,783.9 918.5,783.9 918.5,784.9 896.5,868.9 
	"/>
<polygon fill="#C8E4E7" points="1147.5,784.9 1170.6,868.9 1066.5,894.9 1145.5,787 1147.5,784.9 "/>
<polygon fill="#D9EEF4" points="1148.5,782.9 1147.6,782.9 1145.6,780.9 1103.3,710.3 1099.9,700.1 1100.3,699.4 1101.7,698.4 
	1265.8,688.1 1267.6,688.4 1268.6,689.8 1264,726.8 1263.3,728.3 1156.5,781.5 1148.5,782.9 "/>
<polygon fill="#DEF0EC" points="1100.5,700.8 1145.6,780.9 1072.5,727.8 1072.6,726.1 1096,701.7 1100.5,700.8 "/>
<polygon fill="#C4BFAC" points="1662.7,430.8 1659.7,436.8 1659.7,437.7 1658.3,438 1657.2,437.1 1574.3,347.5 1570,341 
	1570.2,340.3 1570.7,339.7 1571.7,339.7 1717.7,304.9 1719.7,304.7 1663.2,428.9 1662.7,430.8 "/>
<polygon fill="#D2B59E" points="1495.7,218.7 1496.6,218.7 1606.7,199 1616.7,199.7 1615.7,201.7 1526.3,299.2 1520.2,303.3 
	1518.8,302.7 1515.6,296.1 1494.8,221.6 1495.1,219.3 1495.7,218.7 "/>
<polygon fill="#CEB9A2" points="1520.6,302.8 1615.7,201.7 1570.7,339.7 1570.7,339.8 1565.7,339 1523,307.5 1520.2,304.1 
	1520.6,302.8 "/>
<polygon fill="#D0A997" points="1616.7,199.7 1499,218.8 1496.6,218.7 1570.7,139.7 1614.4,195.7 1617.7,198.7 1617.7,199.7 
	1616.7,199.7 "/>
<polygon fill="#E3A593" points="232.3,757.9 245.6,756.9 283.1,760.1 291.3,763.8 225.3,862.9 231.3,762.9 232.3,757.9 "/>
<polygon fill="#BBC6BB" points="1658.7,437.7 1659.7,437.7 1798.7,508.8 1648.5,479.7 1645.7,478.8 1645.3,473.2 1655.8,441.6 
	1658.7,437.7 "/>
<polygon fill="#C5D2C1" points="1644.7,479.8 1644.7,480.8 1642.6,484.1 1610.7,515.7 1604.6,519.6 1603.2,519.2 1602.2,518.2 
	1552.4,440.4 1549.7,432.4 1559,434.8 1639.6,474 1644.7,479.8 "/>
<polygon fill="#C3CDBC" points="1644.7,479.8 1548.4,432.2 1549.3,430.8 1551,430.1 1644.7,433.8 1658.7,436.8 1658.7,437.7 
	1645.7,478.8 1644.7,479.8 "/>
<polygon fill="#C1D4C7" points="1603.7,518.8 1608.5,515.5 1638.7,485.2 1644.7,480.8 1664.7,572.8 1661.7,571.8 1603.5,520.1 
	1603.7,518.8 "/>
<polygon fill="#EFDCBA" points="657.4,649.8 713.4,753.8 582.4,741.8 582,741.2 582.2,739.8 656,649.5 656.8,649.5 657.4,649.8 "/>
<polygon fill="#F0D0AD" points="581.4,742.8 476.4,738.9 476.1,738.2 479.4,732.9 531.8,688.4 535.2,686.3 536.7,686.4 578.6,735.5 
	582.4,741.8 582.4,741.8 581.4,742.8 "/>
<polygon fill="#E8C4A5" points="510.4,822.9 506.6,820.6 438.5,752.5 437.4,750.9 440.7,748.2 471.2,738 475.1,737.9 476.4,738.8 
	476.4,738.9 510.4,822.9 "/>
<polygon fill="#C0D7CD" points="1603.7,519.8 1661.7,571.8 1604.7,554.8 1603.7,554.8 1601.6,549.5 1601.6,525.1 1603.7,519.8 "/>
<polygon fill="#F0B89E" points="436.4,750.9 436.4,751.8 292.3,763.8 292.3,763.8 293.1,757.8 337.9,683.4 343.3,676.8 344.4,674.8 
	349.6,676.9 436.7,749.5 436.4,750.9 "/>
<polygon fill="#EEAE99" points="343.3,676.8 293.8,760.2 292.3,763.8 233.3,757.8 343.3,676.8 "/>
<polygon fill="#F2F1D1" points="900.5,783.9 899.5,782.9 891.5,777 762.1,637.4 761.9,631.6 907.1,643.6 908.8,644.4 909.7,646 
	910.2,652.5 903.5,779.5 901.5,783.8 901.5,783.9 900.5,783.9 "/>
<polygon fill="#98C8DF" points="1491.6,820.9 1596.7,868.9 1595.7,869.9 1483.6,917.9 1491.6,820.9 "/>
<polygon fill="#A7D4E6" points="1489.6,817.9 1490.6,819.9 1449.6,856.9 1461.6,788.8 1462.9,785.5 1465.5,787.6 1488.1,816.6 
	1489.6,817.9 "/>
<polygon fill="#ECE9C8" points="760.5,632.8 899.5,782.9 714.4,753.8 759.5,632.8 759.7,632.5 760.2,632.5 760.5,632.8 "/>
<polygon fill="#F9E6B2" points="759.5,632.8 659.8,649 657.4,649.8 657.4,649.8 655.3,642.4 656.8,573.9 657.4,571.4 661.7,570.6 
	755.3,627.2 759.4,632.8 759.5,632.8 "/>
<polygon fill="#CBE8F1" points="1148.5,782.9 1262.6,727.8 1263.7,733.5 1254.4,828.5 1251.6,835.9 1251.6,835.9 1148.5,782.9 "/>
<polygon fill="#FBB674" points="311.3,420.8 379.3,407.8 380.1,413.2 363.1,485.5 359.3,492.8 356.3,490.8 311.3,420.8 "/>
<polygon fill="#FCBC7B" points="359.3,492.8 379.3,407.8 380.4,406.8 398.3,517.9 392.8,518.6 361,496.7 359.3,493.8 359.3,492.8 
	"/>
<polygon fill="#FCC082" points="359.3,493.8 393.3,517 397.3,518.8 397.9,520.1 394.5,524.1 324.4,556.7 322.3,555.8 322.3,555.8 
	357.6,495.5 359.3,493.8 "/>
<polygon fill="#FAB590" points="344.3,673.8 199.3,651.8 321.3,556.8 322.3,556.8 323.5,558 345,666.9 344.9,673.2 344.3,673.8 "/>
<polygon fill="#F89B59" points="456.4,242.7 439.4,158.7 440.4,157.7 519.4,162.7 517.2,168.4 461.6,239.8 456.4,242.7 "/>
<polygon fill="#FEC97C" points="775.5,176.7 890,261.7 894.5,263.7 894.1,265.4 888.9,266.7 778.8,260.5 775.2,261.7 773.9,262.4 
	679.1,334.5 671,337.3 672,330.5 725.9,190.3 730.4,182.7 736.8,188.9 772.4,251.3 772.4,184 775.4,176.7 775.5,176.7 "/>
<polygon fill="#FEC986" points="894.5,264.7 891.5,141.7 893.5,141.7 963.5,203.5 964,204.9 963.1,206.9 897.1,265.3 895.7,265.5 
	894.5,264.7 "/>
<polygon fill="#FDC88F" points="1000.5,123.7 1071.5,232.7 1064.6,233.7 970.9,209.1 963.5,204.7 963.5,204.7 963.9,198.6 
	995,129.5 999.5,123.7 1000.5,123.7 "/>
<polygon fill="#FCC185" points="999.5,123.7 963.5,204.7 893.5,141.7 997,123.8 999.5,123.7 "/>
<polygon fill="#F9A05D" points="522.4,162.7 573.3,121.2 576.4,119.7 620.4,182.7 620.4,182.7 608.8,182.5 529.4,166.6 522.4,162.7 
	"/>
<polygon fill="#FCBC70" points="730.4,182.7 671.4,337.7 670.7,338.1 669.2,337.5 619.9,185.9 619.9,184.3 620.4,183.7 730.4,182.7 
	"/>
<polygon fill="#F9A660" points="522.4,162.7 620.4,182.7 620.4,183.7 620.4,183.7 613.6,188.6 534.3,221.4 525.8,222 523.4,215 
	518.8,168.8 521.4,162.7 522.4,162.7 "/>
<polygon fill="#FDBF76" points="775.4,176.7 774.5,183.5 774.4,256.5 773.4,256.9 730.4,182.7 730.4,181.7 775.4,176.7 "/>
<polygon fill="#F9A45C" points="521.4,162.7 526.6,223.2 524.1,225.1 463.9,245.1 457.6,245.7 456.4,244.7 456.4,242.7 519.4,162.7 
	521.4,162.7 "/>
<polygon fill="#EFCDAC" points="1195.6,207.7 1204.9,207.3 1315.3,225.8 1323.6,228.9 1325.2,229.2 1326.1,230.4 1321.7,237.5 
	1252.1,325.3 1244.4,332.1 1242.4,331.2 1196.4,217.6 1194.6,209 1195.6,207.7 "/>
<polygon fill="#F9C4A0" points="1074.5,232.7 1173.6,117.7 1194.6,207.7 1184.4,212.1 1080,234 1074.5,232.7 "/>
<polygon fill="#EFC0A3" points="1324.6,229.7 1198.4,208.4 1196.6,207.7 1264.6,147.7 1322,226.4 1324.6,228.7 1324.8,229.4 
	1324.6,229.7 "/>
<polygon fill="#F8CEA3" points="1074.5,232.7 1194.6,207.7 1195.6,207.7 1195.6,208.7 1148.5,251 1142.9,254.1 1079.8,237.6 
	1073.7,234.5 1073.5,233.7 1074.5,232.7 "/>
<polygon fill="#E5B09B" points="1406.6,112.7 1384.7,215.2 1384.6,217.7 1384,218.1 1382.5,217.8 1312.7,112.3 1308.6,101.7 
	1406.6,112.7 "/>
<polygon fill="#E8BA9F" points="1309.6,103.7 1383.6,217.7 1377.7,220.9 1331.4,230.4 1324.6,229.7 1324.6,228.7 1308.8,110.4 
	1309.6,103.7 "/>
<polygon fill="#DBB39C" points="1474.6,133.7 1495.7,218.7 1495.6,218.7 1488.7,220.8 1392.9,219.8 1385.6,217.7 1474.6,133.7 "/>
<polygon fill="#DCBFA3" points="1385.6,217.7 1495.6,218.7 1495.6,220.7 1493.4,227.7 1457.4,287.9 1453,293.2 1446,289.1 
	1383.9,219.8 1384.6,217.7 1384.6,217.7 1385.6,217.7 "/>
<polygon fill="#FFD89D" points="1072.5,233.7 1073.5,233.7 1074.5,236.1 1060.6,312 1058.4,317.5 1050.6,316.9 970.8,278 
	965.3,272.4 971.7,268.8 1064.7,235.2 1072.5,233.7 "/>
<polygon fill="#FFD393" points="1072.5,233.7 967.5,272.5 964.6,272.9 963.2,271.6 960.4,214.7 962.5,205.7 963.5,204.7 
	1071.5,232.7 1072.5,232.7 1072.5,233.7 "/>
<polygon fill="#FDC591" points="322.3,557.8 322.3,555.8 324.3,555.8 437.8,539 439.5,539.5 440.3,541 419.8,663.5 418.8,664.8 
	415.4,663.8 322.3,557.8 "/>
<polygon fill="#C6E5EF" points="1359.6,764.9 1352.8,764.3 1269.2,732.7 1263.7,727.1 1275.8,724 1339.6,716.9 1343.7,713.6 
	1408.7,635.4 1415.4,632.2 1400.1,756.2 1390.8,759.9 1346.4,724.4 1359.2,757.3 1359.6,764.8 1359.6,764.9 "/>
<polygon fill="#C4E3EE" points="1263.6,727.8 1358.6,764.9 1251.6,835.9 1262.6,727.8 1263.6,727.8 "/>
<polygon fill="#C0E3EE" points="1359.6,764.8 1342.7,720.2 1343.4,719.5 1392,758.4 1398,756 1414.6,631.8 1415.8,630.5 
	1419.8,634.1 1471.9,709.8 1475.2,716.9 1469.6,723 1405.6,759.8 1398.6,761.9 1392.8,764.8 1365.7,766.6 1360.6,764.9 
	1359.6,764.8 "/>
<polygon fill="#B5DCEB" points="1398.6,761.9 1475.1,716.5 1475.6,716.9 1463.4,778.8 1458.9,782.1 1399.8,762.7 1398.6,761.9 "/>
<polygon fill="#B5DCEB" points="1360.6,764.9 1396.6,762.9 1445.1,851.1 1360.6,764.9 "/>
<polygon fill="#F3BFA3" points="416.4,662.8 419.5,666 437,744.1 436.4,749.9 344.4,674.8 344.3,673.8 344.3,673.8 357.4,670 
	407.5,662.4 416.4,662.8 "/>
<polygon fill="#BCDCE9" points="1584.7,714.8 1475.6,716.9 1475.6,716.8 1475,698.8 1485.5,587.1 1488.6,580.8 1584.7,714.8 "/>
<polygon fill="#C6E3E6" points="1488.6,580.8 1475.6,716.8 1474.6,716.8 1415.6,630.8 1415.3,629.5 1421.4,623.8 1482.7,581.3 
	1488.1,579.3 1488.6,579.8 1488.6,580.8 "/>
<polygon fill="#C7DDCF" points="1603.7,519.8 1603.7,554.8 1488.6,579.8 1488.6,579.8 1487.9,578.5 1493,573 1595.4,519.9 
	1603.7,518.8 1603.7,519.8 "/>
<polygon fill="#F9A45F" points="456.4,244.7 457.4,244.7 459.2,251.1 458.5,326.9 456.4,332.7 455.4,332.7 454.4,331.6 316.6,263 
	312.3,257.7 451.6,245.7 456.4,244.7 "/>
<polygon fill="#FDC075" points="381.3,406.8 382.3,405.7 478.9,352.1 485.9,350.1 487.2,351.1 499,433.8 499.1,444.6 493.5,445.2 
	381.3,408.2 381.3,406.8 "/>
<polygon fill="#FDC37F" points="381.3,406.8 381.3,407.8 477.7,487.6 477.5,489.1 476.3,490.1 406.1,519.2 399.4,520.9 397.4,519.8 
	397.3,518.8 380.4,406.8 381.3,406.8 "/>
<polygon fill="#FCB86F" points="485.4,350.7 382.3,405.7 456.4,333.7 462.9,334.8 485.8,348.6 485.4,350.7 "/>
<polygon fill="#FBB268" points="485.4,348.7 456.4,333.7 457.4,250.7 461,255 486,347.5 485.4,348.7 "/>
<polygon fill="#F9A261" points="455.4,331.7 455.4,332.7 446.4,332.7 428.3,322.7 425.4,318.7 428.6,318.1 455.4,331.7 "/>
<polygon fill="#F9A261" points="393.4,333.7 413.4,332.7 393.4,333.7 "/>
<polygon fill="#F9A261" points="386.3,333.7 387.1,331 388.4,333.7 386.3,333.7 "/>
<polygon fill="#F9A45F" points="455.4,331.7 425.4,318.7 422.4,316.7 418.1,316.3 371.3,291.7 367.1,291.3 309.9,261.5 307.3,257.7 
	312.3,257.7 316.7,261.4 448.1,326.2 455.4,331.7 "/>
<polygon fill="#F9A45F" points="382.3,251.7 375.3,252.7 382.3,251.7 "/>
<polygon fill="#F9A45F" points="394.3,250.7 387.3,251.7 394.3,250.7 "/>
<polygon fill="#F9A45F" points="357.3,253.7 351.3,254.7 357.3,253.7 "/>
<polygon fill="#F9A45F" points="369.3,252.7 363.3,253.7 369.3,252.7 "/>
<polygon fill="#F9A261" points="374.3,293.7 422.4,316.7 417.3,317.7 380.6,298.6 376.3,297.5 374.3,293.7 "/>
<polygon fill="#F9A261" points="323.3,268.7 371.3,291.7 366.3,292.7 329.6,273.6 325.3,272.5 323.3,268.7 "/>
<polygon fill="#F1C5A6" points="436.4,749.9 418.4,665.8 423.2,668.3 474.2,733.5 475.4,738.8 437.4,750.9 436.4,750.9 436.4,749.9 
	"/>
<polygon fill="#EFF5DA" points="908.5,651.8 908.5,645.8 916.2,645.3 1001,664.8 1002.5,666.8 918.5,783.9 917.5,783.8 914.6,776.6 
	908.5,651.8 "/>
<polygon fill="#F5F7D6" points="1002.5,666.8 1001.5,665.8 943.9,625.2 940.4,618 947,614.7 1065.6,577.1 1076.8,575.2 
	1074.8,582.3 1005.6,665.5 1003.5,665.8 1002.5,666.8 "/>
<polygon fill="#EBF5E7" points="1003.5,665.8 1004.5,664.8 1078.6,649.8 1086.3,645.7 1110.3,621.7 1117.1,619 1117.2,627.7 
	1103.6,694.3 1100.5,699.8 1095.9,695 1084.8,661.5 1076.4,715.2 1072.5,726.8 1072.5,726.8 1003.5,665.8 "/>
<polygon fill="#E9EFD3" points="908.5,651.8 917.5,783.8 901.5,783.8 907.5,654.6 908.5,651.8 "/>
<polygon fill="#E4F3EC" points="1267.6,688.8 1266.6,688.8 1254.3,685.2 1123.8,622.6 1117.2,617.7 1117.8,616.2 1124.3,613.7 
	1278.1,578 1279.8,578.5 1280.8,579.9 1281,583.5 1270.6,679.7 1267.6,688.8 "/>
<polygon fill="#E5F4F1" points="1117.5,617.8 1266.6,688.8 1100.5,699.8 1116.5,618.8 1117.5,617.8 "/>
<polygon fill="#D7EDF1" points="1267.6,688.8 1279.6,582.8 1284.5,589.4 1337.9,707.3 1339.8,717.2 1332.1,716.2 1273.3,693.7 
	1267.6,689.8 1267.6,688.8 "/>
<polygon fill="#CFEAF2" points="1267.6,689.8 1341.6,717.8 1263.6,727.8 1262.6,727.8 1267.6,689.8 "/>
<polygon fill="#E8F4EC" points="1072.5,726.8 1083.8,655 1086.9,661.5 1098.6,697.1 1100.5,699.8 1100.5,700.8 1072.5,726.8 "/>
<polygon fill="#C7CBB6" points="1658.7,436.8 1549.7,431.8 1549.9,421.2 1566.9,346.4 1570.6,340.8 1658.7,436.8 "/>
<polygon fill="#CDC8B1" points="1570.6,340.8 1549.7,431.8 1548.7,431.8 1547.3,430.8 1520,314.2 1519.3,305.8 1520.7,303.7 
	1567.2,337.9 1570.7,339.8 1570.6,340.8 "/>
<polygon fill="#D6CDB3" points="1520.7,303.7 1520.6,305.7 1459.3,428.5 1454.3,434.2 1453.4,434 1452.4,432.5 1451.5,427.1 
	1449.5,303.3 1450.6,294.4 1452,293.3 1512.6,300.4 1519.6,302.7 1520.6,302.8 1520.7,303.7 "/>
<polygon fill="#D7C0A5" points="1519.6,302.7 1452.6,293.7 1452.3,293.1 1452.6,292.7 1495.6,220.7 1519.6,302.7 "/>
<polygon fill="#CCDFCD" points="1603.7,518.8 1599.8,519.8 1493,575.1 1488.6,578.8 1487,578.5 1486.3,576.8 1483.3,485.4 
	1486,483.1 1596,514.3 1603.7,517.8 1603.7,518.8 "/>
<polygon fill="#CCD8C4" points="1603.7,517.8 1490.2,485.4 1486.6,483.8 1489.3,478.5 1543,435 1548.7,432.8 1549.7,432.8 
	1603.7,517.8 "/>
<polygon fill="#D1DAC3" points="1548.7,432.8 1489.2,480.8 1486.6,483.8 1484.6,484.8 1484,484.5 1456.7,441.8 1453.9,435 
	1454.6,433.8 1454.6,433.8 1462.1,431.6 1541.3,429.6 1548.6,430.8 1548.7,432.8 "/>
<polygon fill="#F5DBB6" points="656.4,649.8 582.4,740.9 580.6,729 584.3,667.5 585.9,661.8 586.9,660.3 647,649 655.9,649.2 
	656.4,649.8 "/>
<polygon fill="#F3D5B2" points="587.4,661.8 582.4,741.8 538.3,690.2 536.4,686.8 539.9,683.5 581.4,662.2 587.4,661.8 "/>
<polygon fill="#FCE2AD" points="658.4,572.8 657.4,649.8 656.4,649.8 656.4,649.8 612.6,625.8 610,623.5 609.5,622.1 609.6,620.6 
	651.6,574.7 658.4,572.8 "/>
<polygon fill="#F5CCAA" points="475.4,738.8 421.5,669 418.4,665.8 418.4,663.8 527.8,683.1 535,686.1 535.4,686.8 476.4,738.8 
	475.4,738.8 "/>
<polygon fill="#F9D4A6" points="587.4,661.8 536.4,686.8 535.4,686.8 476.8,579.9 475.2,574.7 475.6,573.3 476.1,572.7 477.5,572.4 
	587.4,660.1 587.4,661.8 "/>
<polygon fill="#F7F4C6" points="907.5,644.8 760.5,632.8 760.4,632.8 760.6,631.2 893.4,602.4 903,602.6 905.6,610.6 908.8,639.3 
	907.5,644.8 "/>
<polygon fill="#F4F6D4" points="940.5,618.8 1000.3,664.2 1001.5,665.8 908.5,645.8 908.5,644.8 910.2,641.3 938.5,618.1 
	940.5,618.8 "/>
<polygon fill="#F7F7CD" points="938.5,618.8 908.5,644.8 907.5,644.8 902.5,602.8 903,602.2 906.3,602 936.9,616.4 938.5,618.8 "/>
<polygon fill="#FAECB0" points="760.5,631.8 760.4,632.8 759.4,632.8 661.1,572 658.4,570.8 658.9,569.2 660.5,568.4 770.6,557.8 
	775.9,558.8 777,560.2 763.7,625.8 760.5,631.8 "/>
<polygon fill="#FFE29E" points="658.4,569.8 658.4,572.8 653.6,575.2 610.4,620.8 608.3,612 608.8,477.5 613.5,476.6 616.1,480.2 
	658.4,569 658.4,569.8 "/>
<polygon fill="#FDC687" points="397.4,519.8 399.4,519.8 434.2,535.7 438.4,539.8 324.3,555.8 395.2,521.8 397.4,519.8 "/>
<polygon fill="#FBBE97" points="416.4,662.8 344.3,673.8 322.3,557.8 416.4,662.8 "/>
<polygon fill="#FFD789" points="773.5,260.7 774.4,260.7 779.3,266.4 810.1,351.8 810.2,359.4 712.4,377.2 704.5,377.6 704.5,371.6 
	773.5,260.7 "/>
<polygon fill="#FFD68B" points="810.5,358.7 776.5,264.6 774.4,260.7 776.5,258.7 889.1,294.5 889.9,295.8 889.2,297.8 816.7,356.9 
	811,359.2 810.5,358.7 "/>
<polygon fill="#FED183" points="773.5,260.7 703.4,376.7 702.8,377.1 701.4,376.9 694.6,370.4 670.1,340 671.4,337.7 671.4,337.7 
	773.5,260.7 "/>
<polygon fill="#FFD489" points="889.5,295.7 776.5,258.7 895.5,264.7 896.4,269.9 892.1,291.7 889.5,295.7 "/>
<polygon fill="#FFD48D" points="962.5,205.7 964.5,272.7 952.1,273.5 901.7,267.8 896.5,264.7 962.5,205.7 "/>
<polygon fill="#FFD88F" points="896.5,264.7 964.5,272.7 964.5,272.7 964.6,274.3 959,277.3 897,296.1 889.5,295.7 889.5,295.7 
	895.5,264.7 896.5,264.7 "/>
<polygon fill="#FFCD7F" points="671.4,337.7 670.4,339.7 670.3,345.9 647.7,408.1 646.8,409.4 645.3,410.1 502.3,446.1 500,445.7 
	499.1,444.4 562.8,326.4 564.2,325.5 664.1,334.8 670.4,337.7 671.4,337.7 "/>
<polygon fill="#FDC071" points="670.4,337.7 563.4,326.8 562.9,325.3 616.2,189.9 620.4,184.7 670.4,337.7 "/>
<polygon fill="#FBB267" points="620.4,184.7 566.4,321.3 563.4,325.7 558.6,318.5 526.8,228.5 526.4,221.7 620.4,183.7 620.4,184.7 
	"/>
<polygon fill="#FCB86B" points="526.4,222.7 563.4,325.7 563.4,327.7 556.1,331.8 494.6,349.9 485.4,350.7 486.1,338 520,232 
	524.4,223.7 526.4,222.7 "/>
<polygon fill="#FBAF64" points="524.4,223.7 485.4,347.7 457.4,250.7 457.4,244.7 524.4,223.7 "/>
<polygon fill="#F4D2AF" points="1143.5,252.7 1195.6,208.7 1243.6,330.8 1241.6,331.5 1148.1,259.4 1143.1,254 1143.5,252.7 "/>
<polygon fill="#F4E0BB" points="1241.6,330.7 1243.6,330.8 1244.6,331.7 1244.9,332.2 1244.8,333.5 1243.6,335 1182.9,383.4 
	1175.7,387.7 1174.2,387.4 1172.5,385.9 1140.4,315.6 1136.7,303.5 1137.7,302.3 1144.5,302.7 1231.6,326.3 1241.6,330.7 "/>
<polygon fill="#EAD1AF" points="1244.6,331.7 1322.3,233.7 1325.6,230.7 1329.4,238.6 1345.3,294.3 1345.1,295.9 1343.9,297 
	1252.1,331.5 1244.6,331.8 1244.6,331.7 "/>
<polygon fill="#E6C6A7" points="1344.6,294.7 1326.1,234.6 1325.6,230.7 1325.6,229.7 1383.6,217.7 1384.6,217.7 1384.6,219.7 
	1351,286.2 1344.6,294.7 "/>
<polygon fill="#F9D4A5" points="1137.6,302.7 1137.5,303.7 1136.2,304 1077.5,241.8 1073.5,235.7 1073.5,233.7 1143.5,252.7 
	1140.5,295.1 1137.6,302.7 "/>
<polygon fill="#E1C8A8" points="1344.6,294.7 1381,224.1 1384.6,219.7 1450.3,290.9 1452.6,292.7 1452.6,293.7 1451.6,293.7 
	1450,294.9 1443.1,295.9 1350.9,297.8 1344.6,295.7 1344.6,294.7 "/>
<polygon fill="#FEE3A2" points="964.5,273.7 964.5,272.7 965.5,272.7 1057.5,317.7 1057.9,318.2 1057.9,319.3 1057,320.9 
	993.5,404.1 986.8,407.6 985.9,406.3 963.6,279.4 964.5,273.7 "/>
<polygon fill="#FBD9A5" points="1073.5,235.7 1134.6,300.3 1136.5,303.7 1132.1,306.6 1065.1,319 1057.5,317.8 1057.5,317.7 
	1072.6,237.5 1073.5,235.7 "/>
<polygon fill="#F9CDA1" points="476.4,573.8 535.4,686.8 418.4,663.8 418.4,662.8 470.6,578.3 476.4,573.8 "/>
<polygon fill="#FECC96" points="476.4,573.8 419.9,661.5 418.4,662.8 438.5,543.1 439.4,540.8 443.7,542.2 473.6,568.9 476.4,572.8 
	476.4,573.8 "/>
<polygon fill="#FFD08C" points="476.4,572.8 439.4,540.8 439.4,539.8 441.1,534.4 470.3,494.5 476.4,488.8 477.4,488.8 479.5,494.6 
	478.4,566.8 476.4,572.8 476.4,572.8 "/>
<polygon fill="#FECB87" points="476.4,488.8 439.4,539.8 438.4,539.8 403.5,523.1 399.4,519.8 476.4,488.8 "/>
<polygon fill="#D6EDEA" points="1341.6,717.8 1339.6,716.8 1279.6,582.8 1279.6,579.8 1287.7,579.2 1403.9,602.4 1405.1,603.5 
	1402.9,611.4 1344.6,714.8 1341.6,717.8 "/>
<polygon fill="#CDE9EB" points="1344.6,714.8 1404.6,603.8 1407.1,605 1415.6,629.8 1415.6,630.8 1344.6,714.8 "/>
<polygon fill="#CEE7E0" points="1415.6,629.8 1404.6,603.8 1404.5,602.3 1405.7,601.2 1481,578.7 1488.6,578.8 1488.6,579.8 
	1415.6,629.8 "/>
<polygon fill="#FEC576" points="486.4,350.7 563.4,327.7 499.4,444.8 498.4,444.8 485.8,353.1 486.4,350.7 "/>
<polygon fill="#FDC47E" points="498.4,444.8 499.4,444.8 499.4,444.8 498.8,450 481.1,484.5 478.1,487.7 477.4,487.8 384.2,411 
	381.3,407.8 498.4,444.8 "/>
<polygon fill="#FFD58C" points="476.4,572.8 477.4,487.8 477.4,487.8 603.4,471.3 607.4,471.6 607.5,476.1 483.2,570.3 477.4,572.8 
	476.4,572.8 "/>
<polygon fill="#F9F7CA" points="938.5,618.8 936.5,617.8 923.2,531.3 923.4,522.4 931.1,521.2 1076.3,571.9 1078.3,573.9 
	1078.1,575.3 1077.5,575.8 940.5,618.8 938.5,618.8 "/>
<polygon fill="#F1F6DE" points="1117.5,617.8 1087.1,647.9 1080.4,651.6 1009.5,664.6 1004.5,664.8 1077.5,575.8 1077.5,575.8 
	1083,578.3 1117.5,616.1 1117.5,617.8 "/>
<polygon fill="#EFF6E2" points="1278.6,578.8 1122.5,616.3 1117.6,616.8 1117.5,616.8 1116.8,610.6 1139.2,528.1 1140,526.7 
	1141.5,526.1 1274.3,575 1278.6,577.4 1278.6,578.8 "/>
<polygon fill="#DEEFDC" points="1404.6,602.8 1404.6,603.8 1279.6,579.8 1279.6,578.8 1281.1,570.2 1302.8,519.4 1307.2,514.3 
	1312.4,516.6 1401.5,597.6 1404.6,602.8 "/>
<polygon fill="#E5F1DB" points="1304.6,519.8 1279.6,578.8 1278.6,578.8 1278.6,577.8 1275.2,561.6 1299,523.8 1304.6,519.8 "/>
<polygon fill="#D2D3B9" points="1548.6,430.8 1544.8,431.7 1454.6,433.8 1517.4,309.2 1520.6,305.7 1547.9,428.9 1548.6,430.8 "/>
<polygon fill="#DCD9BA" points="1450.6,293.7 1451.6,293.7 1453.6,433.8 1447.1,434 1320,398.7 1319,397.5 1325.4,389.3 1441.6,299 
	1450.6,293.7 "/>
<polygon fill="#DCE2C4" points="1319.6,397.7 1453.6,433.8 1454.6,433.8 1454.6,434.8 1451.8,441 1428.9,472.6 1424,477.4 
	1422.5,477.6 1323.4,403.5 1319.6,397.7 "/>
<polygon fill="#D4E9D7" points="1487.6,578.8 1405.6,602.8 1404.9,592.2 1420.5,483.7 1422.2,479.2 1428.6,482.7 1487.6,577.8 
	1487.6,578.8 "/>
<polygon fill="#D3E3CD" points="1487.6,577.8 1423.6,478.8 1424.1,477.3 1434.1,476.7 1478.9,481.6 1484.6,484.8 1484.6,484.8 
	1487.6,577.8 "/>
<polygon fill="#D5E0C8" points="1484.6,484.8 1423.6,477.8 1423.4,477.1 1452.6,436.9 1454.6,434.8 1484.4,482.8 1484.6,484.8 "/>
<polygon fill="#F7DCAF" points="610.4,622.8 656.4,649.8 587.4,660.8 587.4,660.8 588.7,654.8 605.7,626.2 610.4,622.8 "/>
<polygon fill="#FFDC98" points="477.4,572.8 606.1,475.3 608.4,472.8 609.8,472.2 611,473 610.4,475.8 610.4,621.8 603.7,621.8 
	477.4,573.8 477.4,572.8 "/>
<polygon fill="#FBD8A4" points="477.4,573.8 610.4,621.8 610.4,622.8 587.4,660.8 478.9,575.7 477.4,573.8 "/>
<polygon fill="#FAF2BB" points="760.5,631.8 776.5,560.8 780.5,559.7 898.5,598.4 902.9,601.3 902.5,602.8 902.5,602.8 760.5,631.8 
	"/>
<polygon fill="#FAF7C5" points="902.5,602.8 903.1,594 922.1,522.5 922.7,521 924.2,520.5 937.7,614.7 936.5,617.8 902.5,602.8 "/>
<polygon fill="#FFF0A7" points="776.5,559.8 659.4,569.8 663.3,564.1 763.8,489.8 844,454.3 851.2,453.2 849.3,460.7 783.3,553.3 
	777.2,559.7 776.5,559.8 "/>
<polygon fill="#FCF7BB" points="923.5,521.8 904.4,597.3 902.5,601.8 780.9,561.5 776.5,560.8 776.5,559.8 916.4,521.4 923.5,521.8 
	"/>
<polygon fill="#FDE79E" points="764.5,490.8 661.1,568 659.4,569.8 658.4,569.8 658.4,569.8 658.4,492.1 660.5,476 670.5,475 
	758.7,487.7 764.5,490.8 "/>
<polygon fill="#FFE198" points="661.4,475.8 658.4,569.8 655.5,565.9 614.3,480.8 610.4,475.8 610.4,472.8 620.8,470.9 652.1,472.8 
	657.4,473.9 660.3,473.9 661.6,474.5 661.4,475.8 "/>
<polygon fill="#FDE090" points="703.4,376.7 810.5,358.7 810.5,358.7 811.1,360 808.6,364.7 743.4,433.1 742.7,433.4 741.2,433.4 
	738.3,431 704.5,383.1 703.4,376.8 703.4,376.7 "/>
<polygon fill="#FFE299" points="964.5,273.7 987.5,406.8 981,403.2 888.1,298.7 888.5,296.7 889.5,295.7 964.5,273.7 "/>
<polygon fill="#FEE196" points="888.5,296.7 888.5,298.7 890.3,305.1 875.1,436.2 874.2,437.6 867.1,433.9 811.8,362.9 810.5,359.7 
	810.5,358.7 888.5,296.7 "/>
<polygon fill="#FEDD8D" points="703.4,376.8 739.4,430.8 733.3,432.4 654.3,412 648.1,408.3 651.7,403.1 697.7,378 702.4,376.8 
	703.4,376.8 "/>
<polygon fill="#FFD686" points="702.4,376.8 651,405.5 648.4,407.8 646.4,407.8 670.4,339.7 676.2,344.1 702.4,376.8 "/>
<polygon fill="#FFD488" points="501.4,444.8 645.4,408.8 643.5,416.5 615.2,467 609.1,472 508.6,449.4 501.4,444.8 "/>
<polygon fill="#FFDE91" points="646.4,407.8 648.4,407.8 731.8,430 739.4,430.8 741.4,432.8 736.7,438.2 669.4,473.3 661.4,474.8 
	660.4,474.8 657.4,470.5 645.1,415.9 646.4,408.7 646.4,407.8 "/>
<polygon fill="#FFD187" points="501.4,444.8 609.4,471.8 609.8,472.4 609.4,472.8 477.4,487.8 499.4,444.8 501.4,444.8 "/>
<polygon fill="#FFDB8F" points="609.4,472.8 609.4,471.8 645,410.2 645.4,408.8 646.4,408.7 660.4,474.8 658.4,475.8 653.4,474.8 
	609.4,472.8 "/>
<polygon fill="#F6D8B3" points="1137.6,302.7 1143.5,253.7 1241.6,330.7 1137.6,302.7 "/>
<polygon fill="#F7EAB7" points="1056.5,319.7 1057.5,318.7 1066.3,321.1 1168.1,380.7 1174.6,386.8 1174.9,388.2 1167.5,393.8 
	1039.5,464.9 1034,464.7 1033.6,463.1 1056.5,319.7 "/>
<polygon fill="#E9D9B7" points="1244.6,331.8 1343.6,295.7 1344,304.7 1319.2,395.9 1312.5,394.6 1249.8,339.7 1244.6,332.7 
	1244.6,331.8 "/>
<polygon fill="#EAE4C1" points="1244.6,332.7 1315.2,394.7 1318.6,396.7 1319,397.3 1318.6,398.7 1271.9,447.6 1267.4,450.5 
	1265.9,449.9 1264.9,448.7 1243.3,341.6 1243.6,333.7 1244.6,332.7 "/>
<polygon fill="#EDE6C3" points="1243.6,333.7 1265.7,446.4 1266.6,448.8 1260.7,448.3 1199.2,410.2 1196,407.2 1195.6,405.8 
	1197.9,400.3 1235.8,341.7 1242.6,333.7 1243.6,333.7 "/>
<polygon fill="#F8DFB2" points="1173.6,385.7 1059,319.1 1057.5,318.7 1057.5,317.8 1136.5,303.7 1137.5,303.7 1172.8,382.4 
	1173.6,385.7 "/>
<polygon fill="#F3EDC9" points="1196.6,405.8 1196.6,406.8 1195,413.4 1147.1,518.7 1142,522.4 1142.2,514.7 1174.6,387.8 
	1174.6,386.8 1175.6,386.8 1188.7,397 1196.6,405.8 "/>
<polygon fill="#F0E5C0" points="1196.6,405.8 1175.6,386.8 1242.6,333.7 1196.6,405.8 "/>
<polygon fill="#E2D4B4" points="1318.6,396.7 1343.6,295.7 1450.6,293.7 1320.1,395.9 1319.6,396.8 1318.6,396.8 1318.6,396.7 "/>
<polygon fill="#FEE99F" points="873.5,437.8 888.5,298.7 894.3,302.3 987.5,406.8 987.5,407.8 987.2,409.3 980.1,412.7 882.4,438.1 
	873.5,437.8 "/>
<polygon fill="#FCEDAD" points="987.5,408.8 987.5,407.8 1055.5,320.7 1051.8,337.4 1009.2,445.8 1007.8,446.3 1004.5,443.5 
	988.1,412.8 987.4,409.5 987.5,408.8 "/>
<polygon fill="#FBEEB2" points="1008.5,445.8 1054.4,326 1055.5,320.7 1056.5,319.7 1035.4,462 1034.5,463.8 1029.6,463.1 
	1010.9,450.1 1008.5,445.8 "/>
<polygon fill="#DCEDD4" points="1423.6,476.8 1423.6,478.8 1405.6,602.8 1404.6,602.8 1307.6,514.8 1307.8,513.3 1312.9,510.4 
	1414.3,478 1422.6,476.8 1423.6,476.8 "/>
<polygon fill="#FAF7C5" points="924.5,521.8 924.5,520.8 925.5,518.9 1027.4,467.2 1034.5,465.4 1036.5,466.5 1074.7,562 
	1076.5,572.8 1066.7,571.1 930.7,523.1 924.5,521.8 "/>
<polygon fill="#F7F7CE" points="1076.5,572.8 1035.5,466.8 1042.9,467.6 1136.2,522.1 1140.6,526.8 1140.5,527.8 1084.9,572.4 
	1077.5,574.8 1076.5,572.8 "/>
<polygon fill="#F2F6D9" points="1077.5,574.8 1140.5,527.8 1117.5,616.8 1077.5,575.8 1077.5,574.8 "/>
<polygon fill="#F6F2C7" points="1140.6,526.8 1041.8,469 1035.5,466.8 1034.5,465.8 1034.3,465.1 1034.5,464.8 1174.6,387.8 
	1142.8,520.8 1142.6,522.8 1143.3,525.5 1142.3,526.6 1141.6,526.8 1140.6,526.8 "/>
<polygon fill="#EBF4DD" points="1276.6,560.8 1278.6,577.8 1141.6,526.8 1141.5,526.8 1150.2,526.3 1271.3,556.6 1276.5,559.3 
	1276.6,560.8 "/>
<polygon fill="#E7EFD3" points="1276.6,560.8 1276.6,559.8 1273.6,553.1 1265.2,457.5 1265.4,451.1 1266.6,449.8 1267.6,449.8 
	1271.5,454.2 1307.6,513.1 1307.6,514.8 1276.6,560.8 "/>
<polygon fill="#E1E7CA" points="1422.6,476.8 1307.6,513.8 1306.9,496.2 1315.6,404 1318.6,397.8 1318.6,396.8 1319.6,396.8 
	1319.6,397.7 1422.6,476.8 "/>
<polygon fill="#FFF3AD" points="925.5,519.8 924.5,520.8 923.5,520.8 917.4,517.8 856.1,458.5 852.6,452.7 853.3,450.9 873.5,437.8 
	873.5,437.8 987.5,408.8 987.5,408.8 985.7,416.3 925.5,519.8 "/>
<polygon fill="#FEF4AF" points="853.5,452.8 923.5,520.8 923.5,521.8 776.5,559.8 851.5,453.8 853.5,452.8 "/>
<polygon fill="#FEE99E" points="853.5,452.8 765.4,490.8 761.5,485.1 742.6,440.3 742.4,432.8 750.3,432.3 843.3,448.1 847.6,448 
	846.6,443.9 812.8,368.7 812.5,361.7 869.8,434.5 873.5,437.8 853.5,452.8 "/>
<polygon fill="#FFE69A" points="742.4,432.8 765.4,490.8 764.5,490.8 661.4,475.8 661.4,474.8 736.7,436.1 741.4,432.8 742.4,432.8 
	"/>
<polygon fill="#FFDE91" points="653.4,474.8 658.4,475.8 653.4,474.8 "/>
<polygon fill="#FFE699" points="812.5,361.7 848.3,442.5 850.8,451.5 745.3,433.7 742.4,432.8 810.5,359.7 812.5,361.7 "/>
<polygon fill="#FDF7B9" points="1034.5,464.8 1034.5,465.8 926.5,519.8 932,511.9 1003.2,448 1007.5,445.8 1008.5,445.8 
	1034.5,463.8 1034.5,464.8 "/>
<polygon fill="#F1EFCE" points="1266.6,449.8 1266.6,450.8 1261.6,456.1 1150.8,523.7 1142.5,525.8 1142.6,522.8 1196.6,406.8 
	1262.8,447.6 1266.6,448.8 1266.6,449.8 "/>
<polygon fill="#E7E9CB" points="1318.6,397.8 1307.6,513.8 1270.7,456.5 1267.6,449.8 1318.6,397.8 "/>
<polygon fill="#FEF5B4" points="1007.5,445.8 926.5,519.8 925.5,519.8 987.5,408.8 1007.5,445.8 "/>
<polygon fill="#EEF4D8" points="1142.5,525.8 1266.6,450.8 1276.6,559.8 1141.5,526.8 1142.5,525.8 "/>
</svg>
